<?xml version="1.0" encoding="UTF-8" ?>
<!DOCTYPE svg PUBLIC "-//W3C//DTD SVG 1.1//EN" "http://www.w3.org/Graphics/SVG/1.1/DTD/svg11.dtd">
<svg width="105pt" height="400pt" viewBox="0 0 105 400" version="1.1" xmlns="http://www.w3.org/2000/svg">
<g id="#a5ddefff">
<path fill="#a5ddef" opacity="1.00" d=" M 44.47 0.00 L 50.07 0.00 C 54.51 1.92 59.61 -0.46 63.99 1.90 C 73.48 6.05 77.64 16.56 80.15 25.91 C 82.14 33.75 82.83 41.89 82.72 49.96 C 82.77 51.95 81.79 54.00 79.94 54.87 C 74.05 57.86 67.61 59.56 61.15 60.80 C 61.91 63.14 62.98 65.59 65.40 66.62 C 72.17 69.89 79.71 71.28 86.50 74.51 C 92.78 78.07 95.68 85.32 97.13 92.05 C 98.73 100.30 99.55 108.68 100.22 117.05 C 101.00 126.88 99.91 136.74 100.52 146.58 C 101.10 159.74 103.86 172.77 103.42 185.98 C 102.99 195.52 103.04 205.14 105.00 214.53 L 105.00 218.48 C 103.92 223.55 103.36 229.53 99.04 233.02 C 97.10 234.82 94.39 234.08 92.06 233.91 C 92.08 231.70 92.62 229.60 94.11 227.92 C 92.93 224.04 93.84 219.98 93.36 216.02 C 92.65 208.85 96.12 202.10 95.81 194.96 C 95.57 187.89 93.46 181.10 91.90 174.26 C 86.64 151.80 86.46 128.60 82.45 105.94 C 82.13 118.14 77.81 129.68 75.86 141.62 C 74.48 150.15 75.10 159.19 78.87 167.07 C 82.59 175.48 88.45 183.49 88.35 193.07 C 89.17 201.71 89.85 210.41 88.95 219.07 C 87.58 236.72 80.32 253.36 79.53 271.08 C 78.69 286.40 80.16 301.84 78.02 317.08 C 76.11 329.77 71.96 341.97 69.31 354.50 C 67.91 361.35 68.26 368.62 70.89 375.15 C 72.80 380.14 74.99 385.72 73.01 391.03 C 70.01 395.96 64.34 398.26 59.03 399.74 C 56.03 392.54 56.05 384.57 56.37 376.91 C 56.65 369.46 59.29 362.38 60.03 355.00 C 60.44 351.00 60.20 346.98 59.97 342.99 C 58.19 315.99 61.81 289.03 61.13 262.02 C 60.78 245.84 58.08 229.84 56.18 213.80 C 53.82 213.86 51.46 213.91 49.10 213.92 C 47.44 228.63 44.99 243.27 44.34 258.07 C 43.24 284.49 46.71 310.86 45.67 337.28 C 45.48 343.53 44.56 349.81 45.43 356.05 C 46.15 362.07 48.08 367.88 48.71 373.91 C 49.53 382.63 49.20 391.53 46.82 400.00 L 45.02 400.00 C 40.88 396.38 34.19 395.70 31.65 390.35 C 30.56 388.62 31.11 386.53 31.59 384.71 C 33.39 378.19 36.32 371.90 36.78 365.07 C 37.15 360.29 36.36 355.51 35.23 350.87 C 32.58 339.58 28.98 328.48 27.31 316.97 C 24.49 297.36 27.98 277.35 24.21 257.84 C 21.26 243.29 16.49 228.98 16.05 214.02 C 15.81 204.09 16.12 193.88 19.49 184.42 C 22.20 177.18 24.68 169.85 27.72 162.73 C 30.52 156.57 31.07 149.59 29.81 142.97 C 27.78 132.13 23.28 121.91 21.38 111.02 C 20.75 115.33 20.39 119.67 20.13 124.01 C 18.97 142.24 17.06 160.52 12.41 178.23 C 10.73 184.97 8.79 191.86 9.46 198.87 C 10.14 204.56 12.17 210.15 11.56 215.94 C 11.03 219.88 11.99 223.97 10.52 227.77 C 12.30 229.43 12.78 231.71 12.45 234.08 C 10.07 233.96 7.26 234.42 5.42 232.53 C 1.54 228.95 1.02 223.34 0.00 218.47 L 0.00 213.66 C 2.20 204.61 2.14 195.24 1.89 185.99 C 1.54 172.89 4.34 160.00 5.11 146.97 C 6.04 133.87 4.51 120.74 5.59 107.65 C 6.54 98.48 7.17 88.53 12.79 80.82 C 19.85 71.87 32.81 72.37 41.16 65.22 C 42.50 64.08 43.16 62.41 43.90 60.87 C 37.31 60.24 30.27 60.83 24.15 57.88 C 20.78 55.80 21.83 51.31 21.60 47.99 C 21.42 34.03 22.11 18.66 31.27 7.30 C 34.37 3.02 39.36 0.75 44.47 0.00 M 7.88 225.11 C 7.93 222.28 8.18 219.32 6.99 216.66 L 6.10 216.74 C 3.14 219.23 6.05 222.87 7.88 225.11 M 97.09 225.12 C 99.38 222.79 101.26 219.48 98.93 216.44 C 96.21 218.48 97.13 222.20 97.09 225.12 Z" />
</g>
</svg>
