<?xml version="1.0" encoding="UTF-8" ?>
<!DOCTYPE svg PUBLIC "-//W3C//DTD SVG 1.1//EN" "http://www.w3.org/Graphics/SVG/1.1/DTD/svg11.dtd">
<svg width="109pt" height="400pt" viewBox="0 0 109 400" version="1.1" xmlns="http://www.w3.org/2000/svg">
<g id="#b0d239ff">
<path fill="#b0d239" opacity="1.00" d=" M 47.43 0.00 L 52.13 0.00 C 57.14 1.77 62.83 -0.49 67.58 2.40 C 76.63 7.22 80.46 17.62 82.85 26.99 C 84.59 34.53 85.28 42.31 85.10 50.04 C 85.13 51.88 84.33 53.79 82.63 54.67 C 77.04 57.69 70.82 59.32 64.63 60.62 C 67.93 66.66 75.18 68.31 81.01 70.93 C 90.03 73.75 98.96 79.88 101.72 89.36 C 106.44 105.13 104.82 121.77 104.34 137.97 C 103.88 153.74 107.92 169.23 107.49 184.98 C 107.03 194.56 106.65 204.30 109.00 213.69 L 109.00 219.30 C 107.50 223.93 106.71 229.39 102.61 232.57 C 100.44 234.48 97.40 234.03 94.75 234.18 C 94.64 233.29 94.43 231.50 94.32 230.60 C 95.14 229.76 95.98 228.94 96.81 228.12 C 95.69 224.15 96.22 220.00 95.89 215.95 C 95.26 208.44 99.38 201.49 98.81 194.00 C 98.44 187.50 96.40 181.27 94.82 175.01 C 91.22 161.13 89.54 146.84 88.50 132.57 C 87.99 126.03 87.98 119.45 86.98 112.96 C 85.44 118.79 83.08 124.35 81.13 130.05 C 77.81 140.00 78.82 150.90 82.15 160.71 C 86.70 174.09 91.97 187.41 93.72 201.54 C 95.89 216.29 93.33 231.28 89.42 245.53 C 87.34 253.30 84.25 260.81 82.86 268.76 C 81.80 274.44 82.58 280.22 82.83 285.93 C 83.58 303.14 82.28 320.64 76.88 337.09 C 74.01 346.52 69.88 355.92 70.13 365.97 C 70.13 374.89 77.89 383.05 74.00 392.08 C 71.39 396.15 66.66 398.43 62.22 400.00 L 59.80 400.00 C 58.65 397.03 57.73 393.94 57.51 390.75 C 56.11 375.74 60.85 360.98 59.90 345.97 C 58.99 332.37 59.47 318.72 60.56 305.14 C 61.28 294.78 62.72 284.42 62.11 274.02 C 60.79 253.58 59.17 233.15 56.95 212.79 C 55.06 212.89 53.16 212.98 51.27 213.07 C 49.15 233.03 47.55 253.04 46.26 273.08 C 45.78 280.75 46.49 288.43 47.15 296.07 C 48.55 312.08 49.62 328.19 48.51 344.26 C 47.27 360.73 53.17 377.04 50.33 393.47 C 50.06 396.01 48.42 398.04 46.94 400.00 L 45.92 400.00 C 42.38 397.17 37.29 396.08 35.04 391.82 C 33.83 389.58 32.22 387.01 33.10 384.38 C 35.03 377.31 38.59 370.48 38.24 362.97 C 37.86 353.51 34.09 344.67 31.37 335.72 C 25.19 316.85 24.58 296.69 25.99 277.04 C 26.56 269.51 24.43 262.16 22.15 255.08 C 16.65 237.94 12.13 219.84 14.42 201.72 C 15.47 191.51 17.92 181.44 21.96 171.99 C 25.63 163.41 28.80 154.44 29.18 145.02 C 30.08 135.07 25.56 125.86 22.42 116.70 C 21.26 134.54 19.96 152.48 15.82 169.93 C 14.02 177.97 10.92 185.77 10.40 194.06 C 9.84 201.19 13.62 207.83 13.07 214.96 C 12.72 219.22 13.24 223.55 12.31 227.76 C 13.90 229.44 14.42 231.63 14.47 233.89 C 11.78 233.75 8.69 234.37 6.44 232.49 C 2.08 229.19 1.28 223.39 0.00 218.45 L 0.00 213.69 C 3.84 199.57 0.60 184.90 2.51 170.59 C 3.85 159.11 5.67 147.62 5.39 136.02 C 5.09 124.35 4.34 112.60 5.95 100.99 C 6.77 95.12 7.82 89.10 10.86 83.91 C 12.99 80.14 16.55 77.47 20.07 75.08 C 25.33 71.63 31.90 71.40 37.33 68.34 C 40.70 66.70 43.31 63.93 45.40 60.87 C 39.25 60.20 32.74 60.64 27.00 57.99 C 23.43 56.04 24.46 51.39 24.23 48.04 C 24.07 33.96 24.75 18.45 34.08 7.05 C 37.23 2.79 42.29 0.62 47.43 0.00 M 9.09 224.73 C 8.70 222.07 9.90 217.69 6.96 216.33 C 3.70 219.02 6.65 222.74 9.09 224.73 M 101.05 216.64 C 99.83 219.40 99.91 222.47 99.64 225.42 C 100.93 223.96 102.27 222.54 103.30 220.88 C 103.73 219.19 103.28 216.54 101.05 216.64 Z" />
</g>
</svg>
