<?xml version="1.0" encoding="UTF-8" ?>
<!DOCTYPE svg PUBLIC "-//W3C//DTD SVG 1.1//EN" "http://www.w3.org/Graphics/SVG/1.1/DTD/svg11.dtd">
<svg width="109pt" height="399pt" viewBox="0 0 109 399" version="1.1" xmlns="http://www.w3.org/2000/svg">
<g id="#e6be17ff">
<path fill="#e6be17" opacity="1.00" d=" M 46.49 0.00 L 52.10 0.00 C 56.10 1.71 60.56 -0.11 64.61 1.39 C 70.74 3.34 75.10 8.65 77.85 14.25 C 83.11 25.00 84.65 37.17 84.65 49.02 C 84.76 51.25 84.14 53.82 81.91 54.82 C 76.55 57.57 70.70 59.25 64.82 60.45 C 65.80 62.87 67.52 64.99 70.02 65.95 C 78.31 69.40 87.11 72.14 94.33 77.67 C 99.16 81.36 101.96 87.09 103.25 92.92 C 106.28 106.41 105.58 120.34 104.84 134.03 C 104.10 146.67 105.93 159.24 107.20 171.78 C 108.82 185.71 105.38 199.92 109.00 213.67 L 109.00 219.39 C 107.44 224.22 106.61 230.04 102.07 233.11 C 99.87 234.83 96.97 234.15 94.42 234.16 C 94.36 231.84 94.76 229.57 96.67 228.06 C 95.71 224.08 96.12 219.95 95.88 215.89 C 95.59 210.52 97.71 205.37 97.56 200.00 C 97.47 188.62 92.88 178.00 90.75 166.97 C 87.78 151.76 86.95 136.25 85.16 120.88 C 82.15 127.93 80.73 135.91 82.33 143.50 C 84.72 155.80 90.49 167.17 92.51 179.57 C 93.81 187.67 95.54 195.77 95.81 204.00 C 95.59 219.54 93.37 235.08 89.05 250.02 C 86.90 257.51 84.45 265.14 85.06 273.03 C 86.00 291.67 85.78 310.69 80.64 328.77 C 77.36 341.21 70.45 352.87 70.51 366.03 C 70.35 371.51 72.98 376.42 74.59 381.51 C 75.79 385.09 74.95 389.02 73.20 392.26 C 69.94 395.55 65.54 397.22 61.36 399.00 L 59.78 399.00 C 58.73 397.43 57.51 395.87 57.21 393.96 C 54.49 377.27 60.43 360.75 59.20 344.04 C 58.60 335.03 58.65 325.99 59.08 316.98 C 59.95 300.60 57.68 284.29 57.44 267.93 C 56.60 250.62 56.08 233.27 54.43 216.02 C 54.00 227.34 53.13 238.63 52.62 249.95 C 51.78 264.27 51.61 278.61 50.50 292.91 C 49.56 303.93 49.98 314.98 50.41 326.00 C 50.87 337.31 48.92 348.62 50.46 359.89 C 51.87 371.30 53.69 382.85 52.16 394.36 C 51.88 396.03 50.97 397.50 50.23 399.00 L 47.97 399.00 C 45.16 396.90 41.84 395.73 38.67 394.33 C 36.48 392.14 34.33 389.33 35.06 386.03 C 36.49 378.76 38.83 371.53 38.40 364.02 C 37.82 351.93 31.64 341.21 28.40 329.77 C 22.86 311.43 22.62 292.03 23.59 273.05 C 24.22 264.95 21.61 257.14 19.37 249.49 C 16.11 238.53 14.18 227.24 13.12 215.88 C 12.53 219.82 13.29 223.86 12.32 227.76 C 13.96 229.41 14.52 231.59 14.32 233.87 C 11.69 233.76 8.68 234.37 6.49 232.50 C 2.07 229.24 1.30 223.40 0.00 218.45 L 0.00 213.59 C 3.89 199.35 0.53 184.54 2.56 170.10 C 3.95 158.45 5.74 146.78 5.37 135.01 C 4.91 120.91 4.15 106.56 7.45 92.71 C 9.07 85.19 13.62 77.92 20.91 74.82 C 29.25 70.82 40.51 69.86 45.18 60.74 C 39.07 60.33 32.67 60.59 26.91 58.19 C 22.92 56.49 23.93 51.47 23.73 48.00 C 23.57 34.06 24.22 18.73 33.34 7.35 C 36.42 3.07 41.38 0.76 46.49 0.00 M 24.64 124.90 C 23.56 135.26 22.24 145.60 21.01 155.94 C 20.36 162.62 17.61 168.83 16.30 175.37 C 14.12 185.76 9.92 196.43 12.56 207.14 C 12.27 200.62 13.56 194.24 15.06 187.94 C 17.55 173.50 22.81 159.76 26.50 145.63 C 28.36 138.79 27.50 131.34 24.64 124.90 M 9.07 224.59 C 8.72 221.99 9.88 217.63 6.98 216.38 C 3.73 218.86 6.51 222.82 9.07 224.59 M 101.12 217.00 C 99.61 219.46 99.95 222.46 99.81 225.22 C 101.11 223.90 102.45 222.58 103.38 220.96 C 103.45 219.35 103.43 216.59 101.12 217.00 Z" />
</g>
</svg>
