<?xml version="1.0" encoding="UTF-8" ?>
<!DOCTYPE svg PUBLIC "-//W3C//DTD SVG 1.1//EN" "http://www.w3.org/Graphics/SVG/1.1/DTD/svg11.dtd">
<svg width="142pt" height="400pt" viewBox="0 0 142 400" version="1.1" xmlns="http://www.w3.org/2000/svg">
<g id="#ed4f24ff">
<path fill="#ed4f24" opacity="1.00" d=" M 65.52 0.00 L 71.31 0.00 C 75.16 1.87 79.55 -0.20 83.49 1.36 C 89.91 3.31 94.43 8.86 97.18 14.74 C 102.51 25.98 104.02 38.66 103.71 50.98 C 103.79 52.77 102.51 54.23 101.01 55.03 C 96.39 57.54 91.26 58.82 86.28 60.38 L 85.78 61.03 C 87.01 63.47 89.28 65.13 91.63 66.38 C 100.26 70.92 109.74 73.80 117.96 79.10 C 125.17 84.79 127.41 94.31 129.01 102.90 C 131.55 116.40 129.39 130.23 131.47 143.78 C 132.90 154.94 136.49 165.72 137.70 176.91 C 138.34 188.15 137.16 200.01 142.00 210.53 L 142.00 216.46 C 140.60 220.61 139.73 225.27 136.46 228.45 C 133.39 231.72 128.41 233.18 124.14 231.98 C 123.81 231.06 123.57 230.12 123.42 229.16 C 124.47 228.09 125.66 227.17 126.75 226.13 C 124.25 222.97 125.55 218.96 124.74 215.31 C 123.44 210.19 125.77 205.13 125.60 199.99 C 125.69 190.51 120.98 181.99 117.31 173.52 C 113.47 165.00 111.08 155.92 109.15 146.80 C 108.75 144.74 108.23 142.70 107.23 140.85 C 106.54 146.75 109.44 152.19 109.82 157.99 C 110.12 163.34 113.81 167.47 115.89 172.18 C 119.11 179.34 119.93 187.23 122.23 194.68 C 124.22 201.30 123.44 208.30 122.92 215.08 C 121.89 227.34 119.12 239.41 115.03 251.00 C 112.50 258.43 109.56 266.06 110.38 274.07 C 111.74 293.80 110.97 314.13 103.78 332.78 C 99.41 344.88 91.20 356.55 92.89 369.99 C 93.29 376.78 100.63 382.38 97.41 389.39 C 95.30 391.26 93.84 394.02 91.05 394.96 C 88.33 395.94 85.27 396.15 82.89 397.93 C 81.61 399.08 79.46 398.98 78.32 397.68 C 76.12 395.38 75.99 391.97 75.69 388.99 C 74.52 374.49 79.97 360.41 78.89 345.93 C 78.11 336.65 78.11 327.32 78.64 318.03 C 79.76 302.29 77.10 286.64 76.76 270.92 C 76.19 252.90 74.25 234.95 73.70 216.93 C 73.28 218.17 72.92 219.44 72.80 220.76 C 71.42 239.22 70.09 257.70 69.41 276.20 C 68.91 286.81 67.50 297.37 67.50 308.00 C 67.42 316.67 68.30 325.32 68.07 333.99 C 68.05 341.51 66.73 349.03 67.60 356.55 C 68.96 368.95 72.36 381.44 70.12 393.95 C 69.83 396.30 68.62 398.39 66.91 400.00 L 64.13 400.00 C 63.38 398.81 62.71 397.56 61.74 396.54 C 56.60 397.33 51.90 394.07 48.58 390.54 C 47.47 387.13 47.18 383.19 49.21 380.06 C 51.88 375.51 53.83 370.38 53.41 365.02 C 52.73 353.15 45.76 343.06 41.82 332.15 C 34.62 313.69 33.98 293.50 35.30 273.96 C 35.91 267.45 34.18 261.06 31.99 255.00 C 27.10 241.96 23.54 228.32 22.51 214.40 C 21.03 203.25 22.53 191.93 25.08 181.05 C 27.10 172.43 32.99 165.30 34.77 156.61 C 35.84 151.79 36.80 146.89 36.77 141.93 C 35.89 143.48 35.29 145.16 34.88 146.89 C 32.50 156.22 29.35 165.38 24.96 173.97 C 21.17 181.57 16.90 189.34 16.51 198.02 C 16.16 202.89 18.01 207.80 16.67 212.61 C 15.59 216.44 16.67 220.71 14.15 224.09 C 15.03 225.11 16.04 226.00 16.91 227.03 C 16.72 228.13 16.46 229.22 16.11 230.28 C 12.48 230.40 8.56 229.85 5.85 227.19 C 1.77 223.84 0.93 218.34 0.00 213.46 L 0.00 209.44 C 1.37 205.60 2.82 201.77 3.62 197.75 C 5.84 188.35 4.87 178.53 7.10 169.13 C 10.05 156.44 14.36 143.98 15.30 130.91 C 16.09 119.36 16.46 107.66 19.54 96.44 C 21.58 89.18 24.55 81.42 31.17 77.15 C 38.72 72.73 47.42 70.62 54.71 65.71 C 56.59 64.30 59.22 63.29 60.08 60.95 C 55.04 60.30 49.67 60.43 45.08 57.95 C 42.41 56.25 42.81 52.73 42.70 50.00 C 42.68 38.14 42.67 25.70 47.78 14.72 C 51.06 7.46 57.09 0.70 65.52 0.00 M 6.65 215.00 C 7.23 217.18 8.88 219.18 10.89 220.23 C 11.04 217.55 11.54 214.50 9.54 212.34 C 7.84 211.03 6.89 213.73 6.65 215.00 M 132.16 214.13 C 129.38 216.17 130.50 220.03 130.19 222.98 C 131.78 221.64 133.37 220.25 134.57 218.55 C 135.29 216.82 134.23 214.17 132.16 214.13 Z" />
</g>
</svg>
