<?xml version="1.0" encoding="utf-8"?>
<!-- Generator: Adobe Illustrator 25.4.1, SVG Export Plug-In . SVG Version: 6.00 Build 0)  -->
<svg version="1.0" id="Layer_1" xmlns="http://www.w3.org/2000/svg" xmlns:xlink="http://www.w3.org/1999/xlink" x="0px" y="0px"
	 viewBox="0 0 80 429.6" enable-background="new 0 0 80 429.6" xml:space="preserve">
<path display="none" fill="#E9E9E9" d="M41.3,416.7h-2.2c-6.6,0-12-5.4-12-12V30.2c0-6.6,5.4-12,12-12h2.2c6.6,0,12,5.4,12,12v374.5
	C53.3,411.3,47.9,416.7,41.3,416.7z"/>
<g display="none">
	<g display="inline">
		<linearGradient id="SVGID_1_" gradientUnits="userSpaceOnUse" x1="40.1972" y1="410.8596" x2="40.1972" y2="28.2555">
			<stop  offset="0" style="stop-color:#ACDFEF"/>
			<stop  offset="3.893519e-02" style="stop-color:#ACDFE9"/>
			<stop  offset="8.990675e-02" style="stop-color:#ACDDD9"/>
			<stop  offset="0.1476" style="stop-color:#ADDBBE"/>
			<stop  offset="0.2101" style="stop-color:#AED998"/>
			<stop  offset="0.2759" style="stop-color:#AFD568"/>
			<stop  offset="0.3323" style="stop-color:#B0D239"/>
			<stop  offset="0.5158" style="stop-color:#E6BE17"/>
			<stop  offset="0.7708" style="stop-color:#FFAC61"/>
			<stop  offset="1" style="stop-color:#ED4F24"/>
		</linearGradient>
		<path fill="url(#SVGID_1_)" d="M40.2,412.3L40.2,412.3c-4.1,0-7.5-3.4-7.5-7.5V30.6c0-4.1,3.4-7.5,7.5-7.5h0
			c4.1,0,7.5,3.4,7.5,7.5v374.1C47.7,408.9,44.3,412.3,40.2,412.3z"/>
	</g>
	<defs>
		<filter id="Adobe_OpacityMaskFilter" filterUnits="userSpaceOnUse" x="32.7" y="23.1" width="15" height="389.1">
			
				<feColorMatrix  type="matrix" values="-1 0 0 0 1  0 -1 0 0 1  0 0 -1 0 1  0 0 0 1 0" color-interpolation-filters="sRGB" result="source"/>
		</filter>
	</defs>
	
		<mask maskUnits="userSpaceOnUse" x="32.7" y="23.1" width="15" height="389.1" id="SVGID_00000116914340291569789020000011428422957432592265_" display="inline">
		<g filter="url(#Adobe_OpacityMaskFilter)">
			
				<image overflow="visible" width="81" height="1639" xlink:href="6048498E.jpg"  transform="matrix(0.24 0 0 0.24 30.48 21.1178)">
			</image>
		</g>
	</mask>
	<g display="inline" opacity="0.4" mask="url(#SVGID_00000116914340291569789020000011428422957432592265_)">
		<path fill="#FFFFFF" d="M40.2,412.3L40.2,412.3c-4.1,0-7.5-3.4-7.5-7.5V30.6c0-4.1,3.4-7.5,7.5-7.5h0c4.1,0,7.5,3.4,7.5,7.5v374.1
			C47.7,408.9,44.3,412.3,40.2,412.3z"/>
	</g>
</g>
<path display="none" fill="#E9E9E9" d="M40.8,416.7h-1.6c-6.8,0-12.3-5.5-12.3-12.3V30.5c0-6.8,5.5-12.3,12.3-12.3h1.6
	c6.8,0,12.3,5.5,12.3,12.3v373.9C53.1,411.2,47.6,416.7,40.8,416.7z"/>
<g display="none">
	<g display="inline">
		
			<linearGradient id="SVGID_00000077286961322805982830000007413143115392877463_" gradientUnits="userSpaceOnUse" x1="40.3123" y1="411.1804" x2="40.3123" y2="29.818">
			<stop  offset="0" style="stop-color:#ACDFEF"/>
			<stop  offset="3.893519e-02" style="stop-color:#ACDFE9"/>
			<stop  offset="8.990675e-02" style="stop-color:#ACDDD9"/>
			<stop  offset="0.1476" style="stop-color:#ADDBBE"/>
			<stop  offset="0.2101" style="stop-color:#AED998"/>
			<stop  offset="0.2759" style="stop-color:#AFD568"/>
			<stop  offset="0.3323" style="stop-color:#B0D239"/>
			<stop  offset="0.5158" style="stop-color:#E6BE17"/>
			<stop  offset="0.7708" style="stop-color:#FFAC61"/>
			<stop  offset="1" style="stop-color:#ED4F24"/>
		</linearGradient>
		<path fill="url(#SVGID_00000077286961322805982830000007413143115392877463_)" d="M40.3,412.3L40.3,412.3c-4.3,0-7.8-3.5-7.8-7.8
			V119.7c0-4.3,3.5-7.8,7.8-7.8h0c4.3,0,7.8,3.5,7.8,7.8v284.8C48.1,408.8,44.6,412.3,40.3,412.3z"/>
	</g>
	<defs>
		
			<filter id="Adobe_OpacityMaskFilter_00000138531001603434213820000005769693342044544663_" filterUnits="userSpaceOnUse" x="32.5" y="111.9" width="15.6" height="300.4">
			
				<feColorMatrix  type="matrix" values="-1 0 0 0 1  0 -1 0 0 1  0 0 -1 0 1  0 0 0 1 0" color-interpolation-filters="sRGB" result="source"/>
		</filter>
	</defs>
	
		<mask maskUnits="userSpaceOnUse" x="32.5" y="111.9" width="15.6" height="300.4" id="SVGID_00000158016809162308119080000006540626541390550441_" display="inline">
		<g filter="url(#Adobe_OpacityMaskFilter_00000138531001603434213820000005769693342044544663_)">
			
				<image overflow="visible" width="82" height="1270" xlink:href="60484992.jpg"  transform="matrix(0.24 0 0 0.24 30.48 109.6778)">
			</image>
		</g>
	</mask>
	<g display="inline" opacity="0.4" mask="url(#SVGID_00000158016809162308119080000006540626541390550441_)">
		<path fill="#FFFFFF" d="M40.3,412.3L40.3,412.3c-4.3,0-7.8-3.5-7.8-7.8V119.7c0-4.3,3.5-7.8,7.8-7.8h0c4.3,0,7.8,3.5,7.8,7.8
			v284.8C48.1,408.8,44.6,412.3,40.3,412.3z"/>
	</g>
</g>
<path fill="#E9E9E9" d="M40,412.3L40,412.3c-7.2,0-13-5.8-13-13V31.2c0-7.2,5.8-13,13-13h0c7.2,0,13,5.8,13,13v368.1
	C53,406.5,47.2,412.3,40,412.3z"/>
<g display="none">
	<g display="inline">
		
			<linearGradient id="SVGID_00000182489602197617478340000007552279867602890154_" gradientUnits="userSpaceOnUse" x1="40" y1="407.1201" x2="40" y2="9.0877">
			<stop  offset="0" style="stop-color:#ACDFEF"/>
			<stop  offset="3.893519e-02" style="stop-color:#ACDFE9"/>
			<stop  offset="8.990675e-02" style="stop-color:#ACDDD9"/>
			<stop  offset="0.1476" style="stop-color:#ADDBBE"/>
			<stop  offset="0.2101" style="stop-color:#AED998"/>
			<stop  offset="0.2759" style="stop-color:#AFD568"/>
			<stop  offset="0.3323" style="stop-color:#B0D239"/>
			<stop  offset="0.5158" style="stop-color:#E6BE17"/>
			<stop  offset="0.7708" style="stop-color:#FFAC61"/>
			<stop  offset="1" style="stop-color:#ED4F24"/>
		</linearGradient>
		<path fill="url(#SVGID_00000182489602197617478340000007552279867602890154_)" d="M40,407.9L40,407.9c-4.1,0-7.4-3.3-7.4-7.4V206
			c0-4.1,3.3-7.4,7.4-7.4h0c4.1,0,7.4,3.3,7.4,7.4v194.5C47.4,404.6,44.1,407.9,40,407.9z"/>
	</g>
	<defs>
		
			<filter id="Adobe_OpacityMaskFilter_00000021799868791658341360000015004481695753919384_" filterUnits="userSpaceOnUse" x="32.6" y="198.6" width="14.8" height="209.3">
			
				<feColorMatrix  type="matrix" values="-1 0 0 0 1  0 -1 0 0 1  0 0 -1 0 1  0 0 0 1 0" color-interpolation-filters="sRGB" result="source"/>
		</filter>
	</defs>
	
		<mask maskUnits="userSpaceOnUse" x="32.6" y="198.6" width="14.8" height="209.3" id="SVGID_00000012446155227318105320000012143733421389124532_" display="inline">
		<g filter="url(#Adobe_OpacityMaskFilter_00000021799868791658341360000015004481695753919384_)">
			
				<image overflow="visible" width="79" height="890" xlink:href="60484995.jpg"  transform="matrix(0.24 0 0 0.24 30.48 196.3178)">
			</image>
		</g>
	</mask>
	<g display="inline" opacity="0.4" mask="url(#SVGID_00000012446155227318105320000012143733421389124532_)">
		<path fill="#FFFFFF" d="M40,407.9L40,407.9c-4.1,0-7.4-3.3-7.4-7.4V206c0-4.1,3.3-7.4,7.4-7.4h0c4.1,0,7.4,3.3,7.4,7.4v194.5
			C47.4,404.6,44.1,407.9,40,407.9z"/>
	</g>
</g>
<path fill="#E9E9E9" d="M40.8,412.9h-1.5c-6.8,0-12.2-5.5-12.2-12.2V30.4c0-6.8,5.5-12.2,12.2-12.2h1.5c6.8,0,12.2,5.5,12.2,12.2
	v370.2C53,407.4,47.5,412.9,40.8,412.9z"/>
<g>
	<g>
		
			<linearGradient id="SVGID_00000013159134253953434080000005781312601537243573_" gradientUnits="userSpaceOnUse" x1="40.3093" y1="408.0045" x2="40.3093" y2="22.4673">
			<stop  offset="0" style="stop-color:#ACDFEF"/>
			<stop  offset="3.893519e-02" style="stop-color:#ACDFE9"/>
			<stop  offset="8.990675e-02" style="stop-color:#ACDDD9"/>
			<stop  offset="0.1476" style="stop-color:#ADDBBE"/>
			<stop  offset="0.2101" style="stop-color:#AED998"/>
			<stop  offset="0.2759" style="stop-color:#AFD568"/>
			<stop  offset="0.3323" style="stop-color:#B0D239"/>
			<stop  offset="0.5158" style="stop-color:#E6BE17"/>
			<stop  offset="0.7708" style="stop-color:#FFAC61"/>
			<stop  offset="1" style="stop-color:#ED4F24"/>
		</linearGradient>
		<path fill="url(#SVGID_00000013159134253953434080000005781312601537243573_)" d="M40.3,408.5L40.3,408.5c-4.3,0-7.7-3.5-7.7-7.7
			V284.5c0-4.3,3.5-7.7,7.7-7.7h0c4.3,0,7.7,3.5,7.7,7.7v116.2C48,405,44.6,408.5,40.3,408.5z"/>
	</g>
	<defs>
		
			<filter id="Adobe_OpacityMaskFilter_00000001661047301226700050000015337159944285636005_" filterUnits="userSpaceOnUse" x="32.6" y="276.8" width="15.5" height="131.7">
			
				<feColorMatrix  type="matrix" values="-1 0 0 0 1  0 -1 0 0 1  0 0 -1 0 1  0 0 0 1 0" color-interpolation-filters="sRGB" result="source"/>
		</filter>
	</defs>
	
		<mask maskUnits="userSpaceOnUse" x="32.6" y="276.8" width="15.5" height="131.7" id="SVGID_00000114072076430296475560000013249880743767562890_">
		<g filter="url(#Adobe_OpacityMaskFilter_00000001661047301226700050000015337159944285636005_)">
			
				<image overflow="visible" width="82" height="567" xlink:href="60484996.jpg"  transform="matrix(0.24 0 0 0.24 30.48 274.5578)">
			</image>
		</g>
	</mask>
	<g opacity="0.4" mask="url(#SVGID_00000114072076430296475560000013249880743767562890_)">
		<path fill="#FFFFFF" d="M40.3,408.5L40.3,408.5c-4.3,0-7.7-3.5-7.7-7.7V284.5c0-4.3,3.5-7.7,7.7-7.7h0c4.3,0,7.7,3.5,7.7,7.7
			v116.2C48,405,44.6,408.5,40.3,408.5z"/>
	</g>
</g>
</svg>
