<?xml version="1.0" encoding="utf-8"?>
<!-- Generator: Adobe Illustrator 25.4.1, SVG Export Plug-In . SVG Version: 6.00 Build 0)  -->
<svg version="1.0" id="Layer_1" xmlns="http://www.w3.org/2000/svg" xmlns:xlink="http://www.w3.org/1999/xlink" x="0px" y="0px"
	 viewBox="0 0 80 429.6" enable-background="new 0 0 80 429.6" xml:space="preserve">
<path display="none" fill="#E9E9E9" d="M41.3,416.7h-2.2c-6.6,0-12-5.4-12-12V30.2c0-6.6,5.4-12,12-12h2.2c6.6,0,12,5.4,12,12v374.5
	C53.3,411.3,47.9,416.7,41.3,416.7z"/>
<g display="none">
	<g display="inline">
		<linearGradient id="SVGID_1_" gradientUnits="userSpaceOnUse" x1="40.1972" y1="410.8596" x2="40.1972" y2="28.2555">
			<stop  offset="0" style="stop-color:#ACDFEF"/>
			<stop  offset="3.893519e-02" style="stop-color:#ACDFE9"/>
			<stop  offset="8.990675e-02" style="stop-color:#ACDDD9"/>
			<stop  offset="0.1476" style="stop-color:#ADDBBE"/>
			<stop  offset="0.2101" style="stop-color:#AED998"/>
			<stop  offset="0.2759" style="stop-color:#AFD568"/>
			<stop  offset="0.3323" style="stop-color:#B0D239"/>
			<stop  offset="0.5158" style="stop-color:#E6BE17"/>
			<stop  offset="0.7708" style="stop-color:#FFAC61"/>
			<stop  offset="1" style="stop-color:#ED4F24"/>
		</linearGradient>
		<path fill="url(#SVGID_1_)" d="M40.2,412.3L40.2,412.3c-4.1,0-7.5-3.4-7.5-7.5V30.6c0-4.1,3.4-7.5,7.5-7.5h0
			c4.1,0,7.5,3.4,7.5,7.5v374.1C47.7,408.9,44.3,412.3,40.2,412.3z"/>
	</g>
	<defs>
		<filter id="Adobe_OpacityMaskFilter" filterUnits="userSpaceOnUse" x="32.7" y="23.1" width="15" height="389.1">
			
				<feColorMatrix  type="matrix" values="-1 0 0 0 1  0 -1 0 0 1  0 0 -1 0 1  0 0 0 1 0" color-interpolation-filters="sRGB" result="source"/>
		</filter>
	</defs>
	
		<mask maskUnits="userSpaceOnUse" x="32.7" y="23.1" width="15" height="389.1" id="SVGID_00000054230005859604884570000003861258850141549471_" display="inline">
		<g filter="url(#Adobe_OpacityMaskFilter)">
			
				<image overflow="visible" width="81" height="1639" xlink:href="14D833BE.jpg"  transform="matrix(0.24 0 0 0.24 30.48 21.1178)">
			</image>
		</g>
	</mask>
	<g display="inline" opacity="0.4" mask="url(#SVGID_00000054230005859604884570000003861258850141549471_)">
		<path fill="#FFFFFF" d="M40.2,412.3L40.2,412.3c-4.1,0-7.5-3.4-7.5-7.5V30.6c0-4.1,3.4-7.5,7.5-7.5h0c4.1,0,7.5,3.4,7.5,7.5v374.1
			C47.7,408.9,44.3,412.3,40.2,412.3z"/>
	</g>
</g>
<path fill="#E9E9E9" d="M40.8,416.7h-1.6c-6.8,0-12.3-5.5-12.3-12.3V30.5c0-6.8,5.5-12.3,12.3-12.3h1.6c6.8,0,12.3,5.5,12.3,12.3
	v373.9C53.1,411.2,47.6,416.7,40.8,416.7z"/>
<g>
	<g>
		
			<linearGradient id="SVGID_00000171707901383470768770000010159394939308369034_" gradientUnits="userSpaceOnUse" x1="40.3123" y1="411.1804" x2="40.3123" y2="29.818">
			<stop  offset="0" style="stop-color:#ACDFEF"/>
			<stop  offset="3.893519e-02" style="stop-color:#ACDFE9"/>
			<stop  offset="8.990675e-02" style="stop-color:#ACDDD9"/>
			<stop  offset="0.1476" style="stop-color:#ADDBBE"/>
			<stop  offset="0.2101" style="stop-color:#AED998"/>
			<stop  offset="0.2759" style="stop-color:#AFD568"/>
			<stop  offset="0.3323" style="stop-color:#B0D239"/>
			<stop  offset="0.5158" style="stop-color:#E6BE17"/>
			<stop  offset="0.7708" style="stop-color:#FFAC61"/>
			<stop  offset="1" style="stop-color:#ED4F24"/>
		</linearGradient>
		<path fill="url(#SVGID_00000171707901383470768770000010159394939308369034_)" d="M40.3,412.3L40.3,412.3c-4.3,0-7.8-3.5-7.8-7.8
			V119.7c0-4.3,3.5-7.8,7.8-7.8h0c4.3,0,7.8,3.5,7.8,7.8v284.8C48.1,408.8,44.6,412.3,40.3,412.3z"/>
	</g>
	<defs>
		
			<filter id="Adobe_OpacityMaskFilter_00000036235626320027671440000016500358580137524659_" filterUnits="userSpaceOnUse" x="32.5" y="111.9" width="15.6" height="300.4">
			
				<feColorMatrix  type="matrix" values="-1 0 0 0 1  0 -1 0 0 1  0 0 -1 0 1  0 0 0 1 0" color-interpolation-filters="sRGB" result="source"/>
		</filter>
	</defs>
	
		<mask maskUnits="userSpaceOnUse" x="32.5" y="111.9" width="15.6" height="300.4" id="SVGID_00000163775158165812252830000003573643726624130721_">
		<g filter="url(#Adobe_OpacityMaskFilter_00000036235626320027671440000016500358580137524659_)">
			
				<image overflow="visible" width="82" height="1270" xlink:href="14D833C2.jpg"  transform="matrix(0.24 0 0 0.24 30.48 109.6778)">
			</image>
		</g>
	</mask>
	<g opacity="0.4" mask="url(#SVGID_00000163775158165812252830000003573643726624130721_)">
		<path fill="#FFFFFF" d="M40.3,412.3L40.3,412.3c-4.3,0-7.8-3.5-7.8-7.8V119.7c0-4.3,3.5-7.8,7.8-7.8h0c4.3,0,7.8,3.5,7.8,7.8
			v284.8C48.1,408.8,44.6,412.3,40.3,412.3z"/>
	</g>
</g>
</svg>
