<svg xmlns="http://www.w3.org/2000/svg" data-name="Layer 1" width="512" height="512"><rect id="backgroundrect" width="100%" height="100%" x="0" y="0" fill="none" stroke="none"/><g class="currentLayer" style=""><title>Layer 1</title><path d="M256,84.465c-91.943,0-166.744,74.791-166.744,166.722S164.057,417.91,256,417.91s166.744-74.792,166.744-166.723S347.943,84.465,256,84.465Zm0,321.445c-85.326,0-154.744-69.409-154.744-154.723S170.674,96.465,256,96.465s154.744,69.408,154.744,154.722S341.326,405.91,256,405.91Z" id="svg_1" class="selected" fill-opacity="1" fill="#835ec1"/><path d="M194.049,186.239a5.979,5.979,0,0,0,3.945-1.482c1.776-1.552,3.642-3.055,5.547-4.466a6,6,0,0,0-7.146-9.641c-2.163,1.6-4.281,3.309-6.3,5.072a6,6,0,0,0,3.951,10.517Z" id="svg_2" class="selected" fill-opacity="1" fill="#835ec1"/><path d="M184.869,189.151a6,6,0,0,0-8.412,1.108,100.187,100.187,0,0,0,15.981,138.376,6,6,0,1,0,7.617-9.272,88.188,88.188,0,0,1-14.078-121.8A6,6,0,0,0,184.869,189.151Z" id="svg_3" class="selected" fill-opacity="1" fill="#835ec1"/><path d="M182.533,231.4c-3.318,16.993.808,35.446,11.616,51.96,12.122,18.519,32.14,33.79,57.893,44.162.117.047.236.091.356.131a10.395,10.395,0,0,0,7.212,0c.106-.035.21-.073.314-.114,56.555-22.308,75.683-64.352,69.554-96.112-4.33-22.693-20.683-37.356-41.662-37.356-10.425,0-21.128,3.641-31.865,10.832-10.6-6.876-21.453-10.49-31.589-10.49-20.85,0-37.265,14.5-41.82,36.945Zm11.774,2.32c3.427-16.845,14.942-27.308,30.055-27.308,8.738,0,18.464,3.687,28.13,10.661a6,6,0,0,0,7.085-.046c9.665-7.168,19.43-10.957,28.239-10.957,15.179,0,26.625,10.577,29.876,27.617,5.176,26.817-11.905,62.672-61.684,82.5C206.232,295.94,189.144,260.225,194.307,233.723Z" id="svg_4" class="selected" fill-opacity="1" fill="#835ec1"/><path d="M259.985,124.994C196.178,123,142.458,169.076,131.816,228.962a5.993,5.993,0,1,0,11.813,2.024,114.076,114.076,0,0,1,112.916-94.053c60.643.283,110.888,48.646,113.456,109.235,2.761,65.153-49.445,118.9-114,118.9A114.158,114.158,0,0,1,143.357,269.1a6.013,6.013,0,0,0-5.919-5.1h-.032a6,6,0,0,0-5.918,6.954A125.908,125.908,0,0,0,256,377.11c70.541,0,127.74-58.213,126.07-129.116C380.5,181.353,326.612,127.075,259.985,124.994Z" id="svg_5" class="selected" fill-opacity="1" fill="#835ec1"/><path d="M495,70.819a6,6,0,0,0-6,6V146H467V76.067a6,6,0,0,0-12,0V146H433V76.819a6,6,0,0,0-12,0v75.86a40.113,40.113,0,0,0,13.574,30.092A30.679,30.679,0,0,1,445,205.787V301h-7.812A6.516,6.516,0,0,0,431,307.4V411.657A30.53,30.53,0,0,0,461.468,442h1.406a30.332,30.332,0,0,0,30.276-30.689l-1.4-104.184a6.181,6.181,0,0,0-6-6.127H477V206.584a31.786,31.786,0,0,1,10.8-23.816A39.968,39.968,0,0,0,501,152.679V76.819A6,6,0,0,0,495,70.819ZM481.151,411.292a18.569,18.569,0,0,1-5.276,13.245,18.18,18.18,0,0,1-13,5.463h-1.406A18.518,18.518,0,0,1,443,411.657V346h37.272ZM479.827,313l.283,21H443V313Zm.015-139.417a44.233,44.233,0,0,0-14.842,33V301h-8V205.787a43.121,43.121,0,0,0-14.471-32.207A28.008,28.008,0,0,1,433.592,158h54.86A27.606,27.606,0,0,1,479.842,173.583Z" id="svg_6" class="selected" fill-opacity="1" fill="#835ec1"/><path d="M76.171,301H67V206.584A30.547,30.547,0,0,1,77.344,183.17,39.9,39.9,0,0,0,91,152.679V111.026a40,40,0,1,0-80,0v41.653a40.087,40.087,0,0,0,13.99,30.456A29.6,29.6,0,0,1,35,205.787V301H27.611C24.3,301,22,304.085,22,307.4V411.657A30.04,30.04,0,0,0,51.892,442h1.4a30.336,30.336,0,0,0,30.277-30.689l-1.4-104.184A6.181,6.181,0,0,0,76.171,301ZM32.826,173.916A27.832,27.832,0,0,1,23,152.679V111.026a28,28,0,1,1,56,0v41.653a27.635,27.635,0,0,1-9.48,21.26c-2.5,2.147-4.682,5.061-6.56,7.061h-23.6C37.5,179,35.321,176.066,32.826,173.916ZM45.174,193H57.011A50.564,50.564,0,0,0,55,206.584V301H47V205.787A45.543,45.543,0,0,0,45.174,193ZM34,313H70.251l.283,21H34ZM66.3,424.537A18.184,18.184,0,0,1,53.3,430h-1.4A18.029,18.029,0,0,1,34,411.657V346H70.7l.879,65.292A18.57,18.57,0,0,1,66.3,424.537Z" id="svg_7" class="selected" fill-opacity="1" fill="#835ec1"/></g></svg>