<?xml version="1.0" encoding="UTF-8" ?>
<!DOCTYPE svg PUBLIC "-//W3C//DTD SVG 1.1//EN" "http://www.w3.org/Graphics/SVG/1.1/DTD/svg11.dtd">
<svg width="115pt" height="398pt" viewBox="0 0 115 398" version="1.1" xmlns="http://www.w3.org/2000/svg">
<g id="#a5ddefff">
<path fill="#a5ddef" opacity="1.00" d=" M 53.32 0.00 L 53.81 0.00 C 60.06 0.35 66.23 2.92 70.25 7.82 C 74.73 11.64 76.78 17.32 77.63 22.99 C 77.88 26.74 83.00 28.90 81.13 32.96 C 79.25 38.01 77.49 43.70 72.57 46.60 C 71.14 50.38 71.22 54.76 68.41 57.95 C 69.03 61.29 67.65 66.39 71.44 68.15 C 78.35 70.37 85.97 70.79 92.23 74.77 C 99.38 78.98 103.64 86.84 104.92 94.86 C 106.11 100.52 105.72 106.50 107.89 111.94 C 110.39 118.65 111.72 125.81 111.57 132.98 C 111.29 137.18 113.37 140.98 114.04 145.04 C 114.58 148.06 114.87 151.12 115.00 154.19 L 115.00 160.70 C 114.58 170.47 112.83 180.15 112.83 189.95 C 112.87 197.47 116.19 205.41 112.55 212.60 C 110.24 216.65 107.50 221.36 102.70 222.68 C 101.40 219.20 103.44 215.84 104.28 212.52 C 105.42 209.09 103.98 205.57 104.01 202.09 C 103.65 195.98 106.50 189.87 104.58 183.84 C 101.15 171.84 98.91 159.52 97.60 147.11 C 96.99 141.79 97.25 136.20 94.76 131.30 C 93.10 128.18 92.80 123.98 89.98 121.71 C 89.59 121.86 88.81 122.16 88.42 122.31 C 86.32 125.99 84.32 129.89 83.32 134.02 C 83.46 140.40 84.25 146.76 84.57 153.14 C 84.63 156.76 86.62 159.90 87.88 163.18 C 92.12 173.93 93.71 185.53 94.10 197.02 C 95.03 220.88 90.92 244.73 83.66 267.41 C 80.89 275.96 84.51 284.63 85.37 293.17 C 87.23 306.97 83.15 320.54 81.03 334.07 C 79.10 347.57 77.69 361.29 78.85 374.93 C 79.45 380.16 80.12 385.60 82.76 390.26 C 84.28 392.63 85.79 395.47 83.62 398.00 L 73.42 398.00 C 70.99 397.81 68.35 398.14 66.11 397.00 C 63.38 394.97 63.66 391.12 64.03 388.12 C 65.00 381.77 66.05 375.39 65.89 368.95 C 65.57 358.57 65.51 348.16 64.05 337.87 C 61.96 322.34 59.89 306.25 64.35 290.93 C 65.15 287.99 66.62 285.13 66.37 282.02 C 64.94 256.40 63.15 230.81 61.24 205.23 C 61.06 203.38 60.83 201.08 58.92 200.19 C 56.87 199.13 54.31 200.78 54.05 202.97 C 51.72 228.97 49.93 255.04 48.48 281.11 C 47.95 286.61 51.26 291.49 51.78 296.88 C 55.57 315.92 49.95 334.93 49.31 353.97 C 49.13 363.23 48.22 372.55 49.76 381.76 C 50.17 386.15 51.92 390.80 50.20 395.11 C 48.75 398.43 44.61 397.74 41.66 398.00 L 31.46 398.00 C 29.82 396.62 29.39 394.32 30.74 392.58 C 35.02 385.88 35.82 377.75 36.22 370.01 C 36.68 356.86 35.26 343.71 33.17 330.74 C 30.81 317.73 27.39 304.47 29.64 291.18 C 30.62 283.10 33.71 274.79 31.04 266.73 C 24.42 246.16 20.61 224.62 20.63 202.98 C 20.62 187.98 22.31 172.57 28.86 158.89 C 30.84 154.97 30.33 150.46 30.78 146.24 C 30.96 141.82 31.82 137.37 31.20 132.96 C 29.99 129.07 28.23 125.28 25.99 121.87 C 24.73 121.74 23.90 122.25 23.51 123.39 C 21.37 129.02 18.30 134.42 17.86 140.54 C 16.71 154.55 14.87 168.59 10.63 182.03 C 8.46 188.24 10.86 194.70 10.65 201.04 C 10.69 204.38 9.93 207.70 10.25 211.04 C 10.92 214.89 13.52 218.54 12.29 222.57 C 6.74 221.21 3.60 215.56 1.58 210.65 C -1.45 203.18 2.86 195.62 2.12 188.03 C 1.36 177.53 0.65 167.02 0.00 156.52 L 0.00 149.91 C 0.32 144.43 2.52 139.34 3.53 134.02 C 3.18 126.57 4.38 119.11 6.92 112.11 C 9.27 106.33 8.77 99.95 10.29 93.97 C 11.54 86.40 15.49 79.00 22.23 74.99 C 28.95 70.54 37.38 70.59 44.62 67.54 C 47.04 65.13 46.30 61.17 46.76 58.04 C 43.59 54.92 43.60 50.34 42.42 46.36 C 41.04 44.80 38.80 44.05 38.07 41.91 C 35.99 37.83 32.13 32.79 35.30 28.26 C 39.44 22.97 36.58 15.19 40.96 9.96 C 44.50 5.96 49.84 4.11 53.32 0.00 Z" />
</g>
</svg>
