<?xml version="1.0" encoding="UTF-8" ?>
<!DOCTYPE svg PUBLIC "-//W3C//DTD SVG 1.1//EN" "http://www.w3.org/Graphics/SVG/1.1/DTD/svg11.dtd">
<svg width="123pt" height="398pt" viewBox="0 0 123 398" version="1.1" xmlns="http://www.w3.org/2000/svg">
<g id="#b0d239ff">
<path fill="#b0d239" opacity="1.00" d=" M 58.19 0.00 L 58.92 0.00 C 65.08 1.57 71.64 4.03 75.45 9.43 C 76.99 11.57 78.65 13.63 79.99 15.90 C 81.95 19.61 82.41 23.89 84.20 27.68 C 84.88 29.35 85.97 31.09 85.41 32.98 C 84.00 38.37 81.11 43.29 77.65 47.62 C 75.50 51.15 75.08 55.43 73.52 59.23 C 74.57 62.44 74.69 67.21 78.65 68.22 C 85.93 70.29 93.89 71.07 100.11 75.78 C 107.88 81.18 111.71 90.41 113.37 99.42 C 114.74 109.43 119.79 118.66 119.67 128.91 C 119.19 136.71 122.81 143.91 123.00 151.65 L 123.00 159.47 C 122.58 169.34 120.74 179.11 120.57 189.00 C 120.43 196.73 123.96 204.90 120.19 212.26 C 118.03 216.14 115.52 220.84 110.74 221.73 C 110.26 216.74 112.41 211.97 111.85 206.99 C 111.47 201.64 112.12 196.31 112.40 190.97 C 112.21 184.35 110.39 177.91 108.72 171.53 C 106.38 162.50 104.75 153.29 103.88 144.00 C 103.45 138.80 101.50 133.90 100.00 128.95 C 99.61 127.23 98.34 125.99 97.09 124.85 C 94.36 127.56 91.57 130.83 91.78 134.94 C 91.93 141.00 92.38 147.05 92.64 153.11 C 92.68 156.71 94.62 159.84 95.83 163.12 C 100.12 174.23 101.33 186.25 101.48 198.08 C 101.74 221.27 97.17 244.26 90.23 266.31 C 87.71 274.27 90.00 282.50 91.20 290.46 C 92.60 300.19 90.76 309.97 88.81 319.49 C 85.38 334.75 82.92 350.29 82.65 365.95 C 82.76 372.97 83.15 380.14 85.40 386.85 C 86.50 390.56 90.52 394.01 88.00 398.00 L 77.57 398.00 C 74.60 397.71 70.38 398.49 68.92 395.14 C 67.22 390.86 68.89 386.23 69.34 381.86 C 70.86 372.62 69.98 363.26 69.78 353.96 C 69.40 337.94 65.06 322.08 66.90 305.99 C 67.12 300.74 69.20 295.72 68.89 290.44 C 67.32 265.37 66.26 240.27 64.30 215.23 C 64.14 213.76 63.70 211.97 61.99 211.63 C 59.95 211.28 58.77 213.33 58.75 215.09 C 56.78 240.71 54.94 266.37 54.02 292.04 C 56.06 302.24 57.13 312.68 56.34 323.09 C 55.15 337.71 52.88 352.28 53.24 366.98 C 52.89 375.69 54.42 384.33 54.42 393.02 C 54.57 397.10 50.16 398.00 46.97 398.00 L 35.68 398.00 C 33.48 396.67 33.45 393.91 34.90 392.02 C 38.42 386.67 39.70 380.28 40.16 373.98 C 41.15 360.26 39.52 346.50 37.05 333.02 C 35.01 322.06 32.03 311.20 31.59 300.01 C 31.25 291.61 33.25 283.37 33.72 275.02 C 34.05 269.85 32.24 264.92 30.88 260.01 C 25.39 241.16 22.03 221.62 21.73 201.96 C 21.50 190.69 22.38 179.29 25.64 168.45 C 26.86 164.23 28.99 160.26 29.37 155.83 C 29.99 149.23 31.89 142.61 30.78 135.98 C 29.70 131.97 28.58 127.81 26.01 124.47 C 22.23 130.29 19.40 136.89 19.04 143.90 C 18.25 156.90 15.78 169.82 11.44 182.11 C 8.99 188.22 11.58 194.65 11.24 200.94 C 11.23 205.10 9.83 209.40 11.38 213.45 C 12.38 216.29 13.11 219.24 13.27 222.27 C 9.84 222.41 7.61 219.61 5.73 217.18 C 2.11 212.68 0.16 206.73 1.04 200.96 C 1.69 196.69 2.76 192.42 2.40 188.06 C 1.77 177.23 0.55 166.43 0.00 155.59 L 0.00 151.27 C 0.00 143.98 3.64 137.27 3.30 129.96 C 3.40 122.95 5.27 116.17 7.23 109.51 C 9.10 99.89 10.06 89.35 16.61 81.53 C 21.64 75.17 29.36 71.85 37.06 70.03 C 40.08 69.04 44.14 68.85 45.48 65.42 C 48.50 60.56 46.54 54.65 46.70 49.30 C 41.54 46.18 39.36 39.67 38.72 33.98 C 40.45 26.49 40.27 18.53 43.40 11.39 C 44.63 8.72 47.17 7.06 49.58 5.57 C 52.51 3.80 55.26 1.77 58.19 0.00 Z" />
</g>
</svg>
