<?xml version="1.0" encoding="UTF-8" ?>
<!DOCTYPE svg PUBLIC "-//W3C//DTD SVG 1.1//EN" "http://www.w3.org/Graphics/SVG/1.1/DTD/svg11.dtd">
<svg width="133pt" height="398pt" viewBox="0 0 133 398" version="1.1" xmlns="http://www.w3.org/2000/svg">
<g id="#e6be17ff">
<path fill="#e6be17" opacity="1.00" d=" M 62.14 0.00 L 63.22 0.00 C 68.02 0.58 72.90 2.14 76.35 5.69 C 80.71 9.93 86.14 13.82 87.83 19.99 C 88.53 22.83 90.13 25.30 91.21 27.99 C 91.55 32.08 90.89 36.27 88.83 39.85 C 86.89 43.28 86.00 47.12 84.75 50.81 C 83.44 54.37 79.00 56.77 79.89 61.03 C 80.90 64.91 83.87 68.62 88.05 69.16 C 96.00 70.79 104.35 72.68 110.53 78.32 C 118.98 85.52 122.28 96.55 125.06 106.88 C 127.67 114.32 129.85 122.03 129.83 129.99 C 129.64 137.33 132.83 144.19 133.00 151.51 L 133.00 158.63 C 132.58 168.80 130.55 178.84 130.26 189.02 C 129.99 195.70 132.79 202.35 131.04 208.97 C 129.61 214.13 126.31 218.81 121.81 221.73 C 118.06 218.28 121.72 213.29 121.24 209.02 C 120.80 198.07 122.86 186.61 118.74 176.13 C 115.38 166.38 113.34 156.23 112.10 146.00 C 111.13 141.07 110.22 136.08 108.67 131.29 C 107.78 128.95 105.04 129.38 103.07 129.36 C 100.42 136.63 102.44 144.46 102.11 151.99 C 101.74 156.67 104.41 160.67 105.85 164.92 C 109.69 175.84 110.55 187.54 110.43 199.04 C 110.17 218.70 106.35 238.15 100.86 256.97 C 99.33 262.27 97.28 267.48 96.88 273.03 C 96.29 278.73 98.20 284.26 98.74 289.88 C 99.79 299.66 97.69 309.41 95.41 318.88 C 91.57 334.64 88.32 350.70 88.33 367.00 C 88.34 373.37 88.68 379.90 90.92 385.94 C 91.93 388.81 93.99 391.15 95.16 393.95 C 95.90 395.68 94.62 397.31 93.10 398.00 L 82.53 398.00 C 79.40 397.93 74.81 397.86 74.19 393.93 C 73.55 384.31 75.98 374.71 75.11 365.07 C 73.74 344.42 70.62 323.74 72.60 303.01 C 71.18 277.98 70.42 252.90 68.65 227.88 C 68.48 226.20 68.47 223.39 66.01 223.78 C 64.50 224.58 64.61 226.40 64.43 227.84 C 63.05 248.54 61.39 269.23 60.98 289.98 C 60.84 295.98 59.81 301.99 60.69 307.98 C 62.36 323.39 59.26 338.71 58.55 354.08 C 57.76 364.06 58.29 374.08 59.08 384.05 C 59.17 387.85 59.52 391.77 58.51 395.49 C 57.35 398.14 53.93 397.71 51.53 398.00 L 40.61 398.00 C 37.55 397.23 37.94 393.57 39.58 391.65 C 44.64 384.53 45.10 375.44 45.25 367.02 C 45.55 346.84 39.27 327.49 35.61 307.86 C 33.58 297.68 34.75 287.28 35.88 277.08 C 36.50 272.32 35.47 267.57 34.04 263.05 C 27.81 242.92 23.60 222.06 22.94 200.95 C 22.56 189.48 23.46 177.84 27.00 166.87 C 28.69 161.73 29.36 156.34 30.64 151.09 C 32.52 143.41 30.52 135.48 27.87 128.24 C 23.74 131.03 22.70 136.38 21.34 140.86 C 20.42 150.78 19.56 160.79 16.64 170.37 C 15.36 175.28 13.32 179.93 11.74 184.74 C 10.35 189.09 11.89 193.59 12.02 198.01 C 12.32 202.05 11.42 206.03 11.26 210.05 C 11.49 213.83 13.58 217.21 13.93 220.98 C 13.69 223.32 10.95 222.58 9.85 221.31 C 5.60 217.29 1.93 212.11 1.33 206.14 C 0.72 200.36 3.26 194.80 2.76 189.01 C 2.24 178.18 0.61 167.44 0.00 156.61 L 0.00 150.68 C 0.26 144.30 3.09 138.35 3.06 131.94 C 3.29 126.44 3.96 120.94 5.37 115.60 C 7.41 108.47 8.29 101.02 11.08 94.11 C 14.93 83.80 23.46 75.17 34.06 71.93 C 38.06 70.41 42.77 70.08 45.89 66.86 C 49.13 64.07 50.58 59.94 51.75 55.97 C 48.82 53.87 47.59 50.51 46.61 47.19 C 44.97 41.70 40.94 36.93 41.08 30.97 C 40.70 27.59 43.76 25.26 44.09 22.05 C 44.90 17.39 44.61 11.87 48.38 8.39 C 52.41 4.74 57.92 3.40 62.14 0.00 Z" />
</g>
</svg>
