<?xml version="1.0" encoding="UTF-8" ?>
<!DOCTYPE svg PUBLIC "-//W3C//DTD SVG 1.1//EN" "http://www.w3.org/Graphics/SVG/1.1/DTD/svg11.dtd">
<svg width="142pt" height="398pt" viewBox="0 0 142 398" version="1.1" xmlns="http://www.w3.org/2000/svg">
<g id="#ffac61ff">
<path fill="#ffac61" opacity="1.00" d=" M 65.64 0.00 L 66.58 0.00 C 74.25 0.29 80.48 5.16 85.77 10.24 C 90.16 14.77 91.81 21.05 94.50 26.59 C 97.10 31.92 94.69 38.03 91.75 42.69 C 88.37 47.23 87.40 52.95 84.84 57.91 C 84.21 63.31 89.33 67.42 94.09 68.61 C 100.83 70.11 107.86 71.30 113.71 75.24 C 123.96 81.72 129.69 93.06 133.59 104.15 C 136.57 112.11 138.94 120.42 138.97 128.99 C 138.87 136.35 141.74 143.32 142.00 150.65 L 142.00 157.39 C 141.58 167.98 139.26 178.41 139.00 189.01 C 138.72 195.67 141.57 202.33 139.62 208.92 C 138.41 213.08 135.99 216.93 132.70 219.75 C 131.43 220.77 128.70 222.29 128.01 219.87 C 128.40 215.86 129.95 212.03 129.93 207.97 C 129.87 204.32 129.33 200.69 129.43 197.03 C 129.38 191.31 130.68 185.25 127.96 179.90 C 122.16 166.62 119.92 152.22 118.04 137.96 C 117.95 134.08 114.52 131.75 111.92 129.41 C 110.28 135.16 111.06 141.16 110.93 147.04 C 111.02 150.97 110.42 155.13 112.18 158.79 C 116.52 168.26 118.28 178.70 118.56 189.05 C 119.30 211.80 114.53 234.31 108.12 256.01 C 106.33 262.26 103.74 268.42 103.59 275.01 C 103.74 280.08 105.46 284.96 105.55 290.04 C 106.18 303.60 101.19 316.46 98.32 329.50 C 94.65 346.31 90.21 363.85 94.34 381.00 C 95.19 386.03 98.92 390.00 99.85 394.96 C 100.25 396.89 98.06 397.52 96.68 398.00 L 86.65 398.00 C 83.55 397.92 78.83 398.19 78.67 393.94 C 77.77 384.32 80.26 374.71 79.59 365.06 C 77.71 337.72 75.08 310.41 74.41 282.99 C 73.93 269.96 73.37 256.94 72.69 243.92 C 72.49 240.72 72.46 237.40 71.06 234.44 C 69.48 237.72 69.62 241.41 69.35 244.95 C 68.29 263.28 66.89 281.61 66.92 299.98 C 65.92 313.33 65.95 326.75 64.08 340.03 C 62.78 354.76 61.68 369.67 63.83 384.38 C 64.13 388.58 64.89 393.68 61.81 397.08 C 59.82 397.99 57.56 397.85 55.43 398.00 L 45.41 398.00 C 42.03 397.73 41.70 393.80 43.70 391.68 C 48.65 385.25 49.48 376.88 49.68 369.04 C 50.23 353.25 45.99 337.91 42.24 322.72 C 40.07 313.55 37.20 304.43 36.88 294.94 C 36.52 288.59 37.30 282.27 38.12 275.99 C 39.01 269.80 36.28 263.99 34.63 258.19 C 28.22 236.71 23.56 214.45 23.62 191.95 C 23.57 178.92 26.91 166.20 30.70 153.84 C 31.71 150.34 31.32 146.64 31.07 143.06 C 30.54 138.40 30.38 133.51 28.09 129.30 C 25.70 134.26 22.61 139.21 22.55 144.89 C 22.10 157.03 19.17 169.02 14.35 180.16 C 13.17 182.99 11.75 185.89 11.87 189.04 C 12.07 193.03 13.09 196.97 12.76 200.99 C 12.65 205.17 10.99 209.45 12.54 213.55 C 13.22 216.41 14.89 219.23 14.18 222.24 C 12.81 222.57 11.65 222.28 10.68 221.35 C 5.04 216.32 0.45 208.96 1.79 201.10 C 5.10 186.54 0.69 171.86 0.00 157.26 L 0.00 150.70 C 0.23 144.38 2.71 138.41 2.84 132.08 C 3.36 120.68 5.90 109.41 9.74 98.69 C 12.86 90.34 18.13 82.76 25.05 77.11 C 34.27 69.41 48.71 70.40 55.97 59.95 C 54.22 58.02 52.00 56.28 51.25 53.69 C 50.27 50.70 50.34 47.27 48.29 44.72 C 44.88 39.91 42.27 32.98 45.57 27.48 C 48.91 22.11 46.61 14.83 50.82 9.83 C 54.83 5.31 61.08 3.86 65.64 0.00 Z" />
</g>
</svg>
