<?xml version="1.0" encoding="UTF-8" ?>
<!DOCTYPE svg PUBLIC "-//W3C//DTD SVG 1.1//EN" "http://www.w3.org/Graphics/SVG/1.1/DTD/svg11.dtd">
<svg width="151pt" height="398pt" viewBox="0 0 151 398" version="1.1" xmlns="http://www.w3.org/2000/svg">
<g id="#cf5331ff">
<path fill="#cf5331" opacity="1.00" d=" M 71.16 0.00 L 72.15 0.00 C 76.95 0.61 81.96 1.98 85.51 5.46 C 90.35 10.40 96.76 14.65 98.38 21.82 C 98.92 24.77 101.13 27.07 101.80 29.93 C 101.58 36.15 98.75 42.09 94.80 46.81 C 93.57 49.74 93.97 53.29 91.83 55.86 C 90.40 57.63 89.96 59.84 89.70 62.04 C 95.19 69.66 105.50 68.41 113.37 71.54 C 126.36 76.27 134.99 88.05 141.00 99.95 C 145.32 108.64 147.92 118.25 148.07 127.99 C 148.09 135.31 150.54 142.33 151.00 149.62 L 151.00 156.49 C 150.53 167.40 148.02 178.12 147.69 189.04 C 147.46 195.32 150.02 201.55 148.52 207.80 C 147.33 213.33 143.62 217.92 139.53 221.64 C 138.44 222.70 136.39 222.71 135.98 220.99 C 136.62 216.35 139.44 211.96 138.37 207.16 C 137.28 201.78 137.23 196.26 138.34 190.88 C 139.04 187.90 137.97 184.97 136.66 182.33 C 131.23 171.30 127.62 159.27 126.81 146.97 C 126.60 144.52 126.83 142.00 126.19 139.60 C 124.77 136.15 122.70 133.03 120.95 129.75 C 119.61 135.08 120.12 140.61 119.85 146.05 C 119.87 150.41 118.98 155.06 121.05 159.12 C 126.48 171.08 127.30 184.51 126.72 197.46 C 125.68 218.49 120.36 239.03 114.14 259.05 C 112.28 265.24 109.13 271.60 110.83 278.22 C 113.42 288.69 111.94 299.65 108.97 309.87 C 105.04 323.55 101.39 337.33 98.30 351.23 C 96.50 362.29 95.58 373.86 98.41 384.83 C 99.35 389.30 104.60 392.20 103.41 397.18 C 102.74 397.39 101.41 397.80 100.75 398.00 L 90.63 398.00 C 88.44 397.94 86.22 398.02 84.07 397.57 C 81.55 396.06 81.70 392.62 81.81 390.06 C 82.60 383.06 84.08 376.10 83.84 369.03 C 83.47 357.96 83.52 346.82 81.58 335.88 C 80.02 326.98 78.18 318.07 78.02 309.00 C 77.80 292.99 77.25 276.98 76.61 260.99 C 76.39 256.14 76.30 251.27 75.59 246.46 C 74.01 260.58 73.88 274.81 73.08 288.99 C 72.34 298.65 73.49 308.36 72.35 318.00 C 71.04 328.67 68.75 339.21 67.57 349.90 C 67.20 361.27 66.08 372.77 68.14 384.06 C 68.59 387.89 69.95 392.17 67.88 395.75 C 66.14 399.14 61.72 397.55 58.65 398.00 L 50.00 398.00 C 48.54 397.58 46.27 397.01 46.57 394.99 C 46.50 392.98 47.98 391.49 49.01 389.94 C 52.30 385.74 53.19 380.28 53.78 375.12 C 54.74 364.00 53.77 352.69 50.76 341.94 C 48.11 331.73 45.52 321.50 42.48 311.39 C 39.68 302.07 37.96 292.22 39.34 282.49 C 39.94 278.51 41.34 274.48 40.37 270.44 C 39.09 264.98 36.98 259.76 35.43 254.38 C 29.85 235.84 25.36 216.82 24.27 197.43 C 23.74 184.43 24.60 170.93 30.08 158.94 C 32.13 154.93 31.14 150.34 31.21 146.04 C 30.90 140.68 31.56 135.19 30.04 129.96 C 27.63 135.06 23.93 139.96 24.20 145.89 C 23.91 159.15 19.56 171.91 13.79 183.72 C 11.60 187.93 13.12 192.61 13.52 197.03 C 13.99 201.40 12.61 205.66 12.41 210.00 C 12.65 213.79 14.68 217.20 15.08 220.96 C 14.96 222.75 12.39 222.84 11.53 221.56 C 5.43 216.23 0.36 208.30 2.32 199.85 C 5.46 185.69 0.70 171.53 0.00 157.38 L 0.00 149.30 C 0.44 144.18 2.09 139.25 2.55 134.14 C 3.05 128.73 3.10 123.27 4.11 117.92 C 6.70 102.65 14.40 88.31 25.60 77.62 C 32.26 71.55 41.38 69.87 49.92 68.18 C 54.88 67.30 59.95 64.93 61.97 59.98 C 60.28 58.72 58.40 57.58 57.18 55.82 C 54.99 52.43 55.90 47.83 53.26 44.66 C 50.47 41.08 48.92 36.51 49.03 31.96 C 48.89 28.59 52.08 26.31 52.24 23.00 C 52.97 18.10 52.82 12.35 56.79 8.72 C 61.02 4.96 66.77 3.58 71.16 0.00 Z" />
</g>
</svg>
