<?xml version="1.0" standalone="no"?>
<!DOCTYPE svg PUBLIC "-//W3C//DTD SVG 20010904//EN"
 "http://www.w3.org/TR/2001/REC-SVG-20010904/DTD/svg10.dtd">
<svg version="1.0" xmlns="http://www.w3.org/2000/svg"
 width="1080.000000pt" height="1115.000000pt" viewBox="0 0 1080.000000 1115.000000"
 preserveAspectRatio="xMidYMid meet">

<g transform="translate(0.000000,1115.000000) scale(0.100000,-0.100000)"
fill="#000000" stroke="none">
<path d="M5507 11130 c-20 -5 -58 -21 -85 -34 -35 -18 -720 -699 -2703 -2683
-2594 -2595 -2657 -2659 -2679 -2718 -31 -85 -25 -207 14 -285 23 -46 457
-484 2674 -2701 2978 -2977 2689 -2704 2857 -2704 146 1 153 6 535 389 381
381 385 387 385 531 0 167 221 -68 -2274 2428 l-2216 2217 2221 2223 c2496
2497 2269 2255 2269 2422 0 144 -7 152 -393 538 -276 275 -336 330 -384 352
-63 29 -161 40 -221 25z"/>
<path d="M9780 11125 c-30 -9 -75 -29 -100 -45 -25 -16 -1231 -1216 -2681
-2667 -2958 -2960 -2694 -2681 -2694 -2843 1 -165 -272 123 2708 -2857 2979
-2980 2693 -2708 2857 -2708 148 0 152 3 536 388 351 352 364 368 385 481 12
65 -1 145 -33 211 -13 27 -764 785 -2241 2262 l-2222 2223 2226 2227 c2486
2488 2273 2262 2272 2413 -1 84 -17 139 -62 203 -16 23 -172 184 -348 358
-294 292 -322 318 -377 338 -78 29 -158 35 -226 16z"/>
</g>
</svg>
