<?xml version="1.0" encoding="UTF-8" ?>
<!DOCTYPE svg PUBLIC "-//W3C//DTD SVG 1.1//EN" "http://www.w3.org/Graphics/SVG/1.1/DTD/svg11.dtd">
<svg width="64pt" height="64pt" viewBox="0 0 64 64" version="1.1" xmlns="http://www.w3.org/2000/svg">
<g id="#835ec1ff">
<path fill="#835ec1" opacity="1.00" d=" M 12.16 4.21 C 24.81 3.85 37.49 4.12 50.14 4.07 C 55.38 3.89 60.15 8.66 59.94 13.90 C 59.95 25.96 59.96 38.02 59.94 50.08 C 60.16 55.36 55.33 60.15 50.05 59.93 C 38.01 59.97 25.96 59.96 13.92 59.93 C 8.65 60.13 3.82 55.34 4.06 50.06 C 4.04 38.01 4.04 25.95 4.06 13.90 C 3.89 9.26 7.61 4.91 12.16 4.21 M 12.17 8.30 C 9.80 9.05 7.96 11.39 8.01 13.91 C 7.92 23.27 7.98 32.64 7.98 42.00 C 8.02 45.26 7.64 48.57 8.27 51.79 C 9.08 54.65 12.12 56.25 14.97 56.03 C 26.33 56.04 37.69 56.02 49.04 56.04 C 52.52 56.39 56.09 53.69 56.00 50.06 C 56.18 39.05 55.90 28.03 56.06 17.02 C 56.02 14.54 56.29 11.62 54.25 9.79 C 52.14 7.52 48.79 8.01 46.00 7.95 C 34.72 8.16 23.42 7.60 12.17 8.30 Z" />
<path fill="#835ec1" opacity="1.00" d=" M 12.17 22.27 C 16.80 16.18 24.25 11.91 32.02 12.11 C 39.31 11.93 46.20 15.70 51.00 21.00 C 52.00 21.79 52.64 23.52 51.26 24.33 C 48.17 26.86 45.10 29.45 41.80 31.71 C 40.15 32.75 39.24 30.57 38.25 29.69 C 36.17 27.07 32.29 25.82 29.18 27.26 C 26.59 28.23 25.16 30.78 23.12 32.49 C 19.94 30.15 16.86 27.70 13.77 25.24 C 13.01 24.48 11.36 23.57 12.17 22.27 M 16.84 22.80 C 18.81 24.18 20.74 25.63 22.69 27.04 C 24.62 24.86 27.21 23.51 29.97 22.71 C 29.97 21.44 29.98 20.17 29.98 18.90 C 31.30 17.92 32.69 17.94 34.02 18.90 C 34.02 20.18 34.03 21.45 34.04 22.73 C 36.92 23.50 39.47 25.10 41.66 27.08 C 43.36 25.48 45.23 24.08 47.17 22.79 C 43.68 19.22 39.07 16.56 34.03 16.11 C 27.62 15.35 21.20 18.17 16.84 22.80 Z" />
</g>
</svg>
