<?xml version="1.0" encoding="UTF-8" ?>
<!DOCTYPE svg PUBLIC "-//W3C//DTD SVG 1.1//EN" "http://www.w3.org/Graphics/SVG/1.1/DTD/svg11.dtd">
<svg width="64pt" height="64pt" viewBox="0 0 64 64" version="1.1" xmlns="http://www.w3.org/2000/svg">
<g id="#835ec1ff">
<path fill="#835ec1" opacity="1.00" d=" M 31.30 0.00 L 32.64 0.00 C 36.96 0.31 40.81 3.69 41.37 8.03 C 41.98 10.90 40.46 13.52 39.15 15.93 C 46.40 17.79 53.33 22.86 55.55 30.25 C 56.65 34.35 52.86 37.57 49.09 37.94 C 48.98 45.74 44.93 52.67 42.30 59.82 C 44.51 60.29 46.44 62.01 44.41 64.00 L 19.50 64.00 C 18.20 61.75 19.43 60.30 21.83 59.82 C 19.20 52.67 15.11 45.73 15.04 37.93 C 11.35 37.55 7.59 34.50 8.51 30.47 C 10.67 22.95 17.67 17.78 25.02 15.94 C 23.66 13.55 22.13 10.92 22.75 8.04 C 23.31 3.76 27.04 0.40 31.30 0.00 M 29.43 4.39 C 25.61 6.17 25.33 12.07 28.99 14.17 C 32.64 16.89 38.28 13.39 37.75 8.97 C 37.56 5.09 32.82 2.33 29.43 4.39 M 12.39 30.40 C 11.13 32.32 13.69 34.72 15.61 33.64 C 17.69 31.13 18.89 27.73 21.97 26.19 C 23.48 26.42 24.90 28.14 23.43 29.42 C 20.18 32.67 18.22 37.07 18.82 41.74 C 27.64 41.77 36.46 41.74 45.27 41.76 C 45.37 38.89 45.31 35.83 43.68 33.35 C 42.65 31.41 40.71 30.05 39.92 28.00 C 40.57 27.27 41.24 26.56 41.94 25.88 C 44.85 27.76 46.50 30.79 48.39 33.57 C 50.39 34.84 53.06 32.29 51.68 30.28 C 44.87 14.94 19.08 14.99 12.39 30.40 M 20.22 45.52 C 22.26 50.38 23.94 55.38 25.88 60.28 C 27.32 60.27 28.75 60.26 30.19 60.26 C 30.18 56.84 30.19 53.43 30.12 50.02 C 30.60 49.68 31.56 49.00 32.04 48.66 C 32.53 48.99 33.51 49.65 34.00 49.98 C 33.92 53.40 33.93 56.82 33.93 60.25 C 35.36 60.26 36.80 60.27 38.23 60.29 C 40.20 55.40 41.83 50.38 43.93 45.54 C 36.03 45.49 28.12 45.52 20.22 45.52 Z" />
</g>
</svg>
