<?xml version="1.0" encoding="UTF-8"?>
<svg xmlns="http://www.w3.org/2000/svg" xmlns:xlink="http://www.w3.org/1999/xlink" width="25px" height="25px" viewBox="0 0 25 25" version="1.1">
<g id="surface1">
<path style=" stroke:none;fill-rule:nonzero;fill:rgb(100%,100%,100%);fill-opacity:1;" d="M 24.042969 19.421875 L 23.929688 19.070312 C 23.652344 18.253906 22.753906 17.402344 21.925781 17.179688 L 18.867188 16.34375 C 18.035156 16.117188 16.851562 16.421875 16.246094 17.027344 L 15.136719 18.136719 C 11.109375 17.046875 7.953125 13.890625 6.867188 9.867188 L 7.976562 8.757812 C 8.582031 8.152344 8.886719 6.96875 8.660156 6.136719 L 7.824219 3.078125 C 7.601562 2.246094 6.746094 1.347656 5.933594 1.074219 L 5.582031 0.957031 C 4.765625 0.6875 3.601562 0.960938 2.996094 1.570312 L 1.335938 3.226562 C 1.042969 3.523438 0.851562 4.363281 0.851562 4.367188 C 0.792969 9.628906 2.855469 14.695312 6.578125 18.417969 C 10.292969 22.132812 15.339844 24.191406 20.585938 24.148438 C 20.613281 24.148438 21.480469 23.960938 21.777344 23.667969 L 23.433594 22.007812 C 24.042969 21.402344 24.316406 20.238281 24.042969 19.421875 Z M 24.042969 19.421875 "/>
</g>
</svg>
