<svg xmlns="http://www.w3.org/2000/svg" viewBox="0 0 50 50"><path d="M23.75 2C12.800781 2 6 8.820313 6 19.78125C6 21.34375 6.214844 22.882813 6.4375 24.53125C7.042969 28.972656 7.671875 33.578125 4 38.5625C3.839844 38.78125 3.765625 39.042969 3.8125 39.3125C3.859375 39.582031 4.023438 39.816406 4.25 39.96875C4.417969 40.078125 8.402344 42.679688 17.5 43.6875C19.804688 46.464844 22.449219 48 25 48C27.5625 48 30.226563 46.472656 32.53125 43.6875C41.625 42.671875 45.855469 40.109375 46.03125 40C46.273438 39.851563 46.417969 39.589844 46.46875 39.3125C46.519531 39.035156 46.457031 38.753906 46.28125 38.53125C42.554688 33.742188 43.054688 29.667969 43.59375 25.34375C43.785156 23.800781 44 22.195313 44 20.5625C44 14.027344 41.078125 6.410156 32.875 6.15625C29.402344 2.71875 26.007813 2 23.75 2 Z M 31.84375 17.34375C33.328125 18.921875 36 22.53125 36 28.28125C36 35.953125 31.234375 42.0625 31.1875 42.125C31.179688 42.136719 31.195313 42.144531 31.1875 42.15625C29.21875 44.628906 27.023438 46 25 46C22.972656 46 20.757813 44.621094 18.78125 42.125C18.773438 42.113281 18.757813 42.105469 18.75 42.09375C18.703125 42.050781 14 37.570313 14 31C14 25.996094 18.296875 24.945313 22.09375 24.03125C22.878906 23.84375 23.609375 23.675781 24.28125 23.46875C28.769531 22.078125 30.921875 19.125 31.84375 17.34375 Z M 19.5 28C18.671875 28 18 28.671875 18 29.5C18 30.328125 18.671875 31 19.5 31C20.328125 31 21 30.328125 21 29.5C21 28.671875 20.328125 28 19.5 28 Z M 30.5 28C29.671875 28 29 28.671875 29 29.5C29 30.328125 29.671875 31 30.5 31C31.328125 31 32 30.328125 32 29.5C32 28.671875 31.328125 28 30.5 28Z"/></svg>