<svg width="131" height="102" viewBox="0 0 131 102" fill="none" xmlns="http://www.w3.org/2000/svg">
<path d="M92.9993 47.0002C93.0391 52.5015 91.9821 57.9562 89.8893 63.0502C87.7964 68.1441 84.7091 72.7765 80.8052 76.6805C76.9013 80.5845 72.2579 83.683 67.1426 85.7974C62.0273 87.9119 56.5411 89.0004 51.0002 89.0004C45.4593 89.0004 39.9732 87.9119 34.8579 85.7974C29.7425 83.683 25.0992 80.5845 21.1952 76.6805C17.2913 72.7765 14.204 68.1441 12.1112 63.0502C10.0183 57.9562 8.96133 52.5015 9.00108 47.0002C8.96133 41.4989 10.0183 36.0442 12.1112 30.9503C14.204 25.8564 17.2913 21.224 21.1952 17.3199C25.0992 13.4159 29.7425 10.3174 34.8579 8.20299C39.9732 6.08857 45.4593 5 51.0002 5C56.5411 5 62.0273 6.08857 67.1426 8.20299C72.2579 10.3174 76.9013 13.4159 80.8052 17.3199C84.7091 21.224 87.7964 25.8564 89.8893 30.9503C91.9821 36.0442 93.0391 41.4989 92.9993 47.0002V47.0002Z" fill="#37C837"/>
<path d="M92.9993 47.0002C93.0391 52.5015 91.9821 57.9562 89.8893 63.0502C87.7964 68.1441 84.7091 72.7765 80.8052 76.6805C76.9013 80.5845 72.2579 83.683 67.1426 85.7974C62.0273 87.9119 56.5411 89.0004 51.0002 89.0004C45.4593 89.0004 39.9732 87.9119 34.8579 85.7974C29.7425 83.683 25.0992 80.5845 21.1952 76.6805C17.2913 72.7765 14.204 68.1441 12.1112 63.0502C10.0183 57.9562 8.96133 52.5015 9.00108 47.0002C8.96133 41.4989 10.0183 36.0442 12.1112 30.9503C14.204 25.8564 17.2913 21.224 21.1952 17.3199C25.0992 13.4159 29.7425 10.3174 34.8579 8.20299C39.9732 6.08857 45.4593 5 51.0002 5C56.5411 5 62.0273 6.08857 67.1426 8.20299C72.2579 10.3174 76.9013 13.4159 80.8052 17.3199C84.7091 21.224 87.7964 25.8564 89.8893 30.9503C91.9821 36.0442 93.0391 41.4989 92.9993 47.0002V47.0002Z" fill="#AFE9AF"/>
<g filter="url(#filter0_d_28_13)">
<path d="M92.9993 47.0002C93.0391 52.5015 91.9821 57.9562 89.8893 63.0502C87.7964 68.1441 84.7091 72.7765 80.8052 76.6805C76.9013 80.5845 72.2579 83.683 67.1426 85.7974C62.0273 87.9119 56.5411 89.0004 51.0002 89.0004C45.4593 89.0004 39.9732 87.9119 34.8579 85.7974C29.7425 83.683 25.0992 80.5845 21.1952 76.6805C17.2913 72.7765 14.204 68.1441 12.1112 63.0502C10.0183 57.9562 8.96133 52.5015 9.00108 47.0002C8.96133 41.4989 10.0183 36.0442 12.1112 30.9503C14.204 25.8564 17.2913 21.224 21.1952 17.3199C25.0992 13.4159 29.7425 10.3174 34.8579 8.20299C39.9732 6.08857 45.4593 5 51.0002 5C56.5411 5 62.0273 6.08857 67.1426 8.20299C72.2579 10.3174 76.9013 13.4159 80.8052 17.3199C84.7091 21.224 87.7964 25.8564 89.8893 30.9503C91.9821 36.0442 93.0391 41.4989 92.9993 47.0002Z" fill="#0098EE"/>
</g>
<path d="M62.7382 73.786C65.0676 73.0461 67.6104 72.0417 68.4664 71.5233C69.0416 71.175 69.1226 71.0576 68.9236 70.8611C67.4818 69.4378 57.3391 60.3805 57.2497 60.437C57.1843 60.4782 57.0187 61.1238 56.8817 61.8717C56.6114 63.3479 56.3568 63.6857 55.5145 63.6853C54.821 63.6853 54.3636 63.2889 53.6988 62.1131C53.409 61.6006 52.9405 60.8791 52.6576 60.5098C52.3748 60.1406 51.8031 59.218 51.3874 58.4596C50.9716 57.7012 50.2408 56.4517 49.7635 55.6829C48.6693 53.9204 47.396 51.7717 46.9142 50.8749C46.7103 50.4952 46.2071 49.7213 45.7961 49.1551C45.3851 48.5889 44.861 47.7502 44.6316 47.2913C44.4021 46.8324 43.7443 45.7439 43.1698 44.8727C42.5954 44.0013 41.905 42.8453 41.6358 42.3038C41.3666 41.7622 40.8722 40.8815 40.5371 40.3467C39.7667 39.1171 38.8698 37.2896 38.7148 36.634C38.6203 36.2343 38.6999 36.0303 39.1 35.6467C39.6394 35.1293 39.6749 35.1294 41.3911 35.6564C41.9715 35.8347 42.4841 35.9422 42.5301 35.8953C42.6128 35.811 38.6854 20.2964 38.545 20.1536C38.4421 20.0487 33.8437 23.9848 33.8437 24.178C33.8437 24.2655 33.4435 24.743 32.9543 25.2391C32.4651 25.7352 31.7709 26.6166 31.4115 27.1978C30.8451 28.114 30.7313 28.4981 30.5559 30.0869C29.9993 35.1292 31.3042 42.5831 33.781 48.5073C35.1143 51.6964 35.9153 53.2954 36.8621 54.6568C37.2902 55.2724 37.8663 56.2374 38.1423 56.8012C39.6251 59.8304 44.2984 65.3529 47.5596 67.9301C49.81 69.7084 54.5855 72.8888 55.6892 73.3444C58.9171 74.6765 59.7679 74.7299 62.7384 73.7864L62.7382 73.786ZM70.9704 68.0703C71.6701 66.3176 71.6897 66.2153 71.382 65.9194C71.122 65.6694 62.928 58.3976 61.7971 57.4133C61.5328 57.1833 61.2671 57.2683 59.6233 58.109C58.0462 58.9156 57.7906 59.1061 58.0042 59.3158C58.7843 60.0817 70.1384 70.0097 70.1828 69.9647C70.2119 69.935 70.5664 69.0826 70.9704 68.0705L70.9704 68.0703ZM45.7881 34.5523C46.5635 33.9504 47.1957 33.4472 47.1929 33.434C46.9826 32.4349 43.9182 20.2202 43.8641 20.1649C43.759 20.0577 39.8475 19.4986 39.7679 19.5795C39.7183 19.63 40.7922 23.8613 43.7402 35.2317C43.949 36.0373 43.8192 36.0804 45.788 34.5522L45.7881 34.5523Z" fill="white"/>
<rect x="54" y="14" width="77" height="20" rx="10" fill="white"/>
<path d="M64.3304 29.7148C63.9548 29.7148 63.5913 29.687 63.24 29.6313C62.8887 29.5791 62.56 29.4957 62.2539 29.3809C61.9478 29.2661 61.6678 29.1183 61.4139 28.9374C61.1635 28.7565 60.9478 28.5374 60.767 28.28C60.5861 28.0261 60.4452 27.7304 60.3443 27.393C60.247 27.0591 60.1983 26.68 60.1983 26.2557C60.1983 25.9496 60.2104 25.6591 60.2348 25.3843C60.2626 25.1061 60.3043 24.8313 60.36 24.56C60.4157 24.2887 60.487 24.0139 60.5739 23.7357C60.6643 23.4574 60.7722 23.1617 60.8974 22.8487L62.2383 23.407C62.1374 23.6574 62.0504 23.8835 61.9774 24.0852C61.9078 24.287 61.8487 24.4713 61.8 24.6383C61.7513 24.8017 61.713 24.953 61.6852 25.0922C61.6574 25.2313 61.6365 25.3652 61.6226 25.4939C61.6087 25.6191 61.6 25.7443 61.5965 25.8696C61.593 25.9913 61.5913 26.12 61.5913 26.2557C61.5913 26.5165 61.633 26.7426 61.7165 26.9339C61.8 27.1252 61.913 27.287 62.0557 27.4191C62.1983 27.5513 62.3617 27.6591 62.5461 27.7426C62.7339 27.8296 62.9287 27.8957 63.1304 27.9409C63.3322 27.9861 63.5357 28.0174 63.7409 28.0348C63.9496 28.0522 64.1461 28.0609 64.3304 28.0609C64.4209 28.0609 64.5548 28.0539 64.7322 28.04C64.9096 28.0296 65.1026 28.0087 65.3113 27.9774C65.5235 27.9496 65.7391 27.9113 65.9583 27.8626C66.1809 27.8139 66.3826 27.753 66.5635 27.68C66.7443 27.6104 66.8922 27.527 67.007 27.4296C67.1217 27.3357 67.1791 27.2243 67.1791 27.0957C66.9287 26.9078 66.5861 26.7391 66.1513 26.5896C65.7165 26.44 65.1843 26.327 64.5548 26.2504L64.7687 24.6643H69.0522V26.313H68.3739C68.447 26.4522 68.4991 26.5913 68.5304 26.7304C68.5652 26.873 68.5843 26.9948 68.5878 27.0957C68.5704 27.4226 68.487 27.713 68.3374 27.967C68.1913 28.2243 68.0017 28.4504 67.7687 28.6452C67.5357 28.84 67.2713 29.0052 66.9757 29.1409C66.68 29.2765 66.3774 29.3861 66.0678 29.4696C65.7583 29.5565 65.4522 29.6191 65.1496 29.6574C64.8504 29.6957 64.5774 29.7148 64.3304 29.7148ZM72.7357 24.6643V26.313H72.621C72.2836 26.313 71.9983 26.2661 71.7653 26.1722C71.5323 26.0783 71.3288 25.9496 71.1549 25.7861C70.9044 25.9704 70.6088 26.1043 70.2679 26.1878C69.9305 26.2713 69.5218 26.313 69.0418 26.313H68.8488V24.6643H69.0418C69.5218 24.6643 69.8836 24.5861 70.127 24.4296C70.3705 24.273 70.4923 24.0383 70.4923 23.7252C70.4923 23.6209 70.4783 23.4748 70.4505 23.287C70.4227 23.0957 70.3653 22.8452 70.2783 22.5357L71.7549 22.1757C71.8105 22.367 71.8557 22.5374 71.8905 22.687C71.9288 22.833 71.9583 22.967 71.9792 23.0887C72.0001 23.2104 72.0157 23.3235 72.0262 23.4278C72.0366 23.5287 72.0453 23.6278 72.0523 23.7252C72.0592 23.8226 72.0696 23.927 72.0836 24.0383C72.0975 24.1461 72.1236 24.247 72.1618 24.3409C72.2036 24.4348 72.2592 24.513 72.3288 24.5757C72.4018 24.6348 72.4992 24.6643 72.621 24.6643H72.7357ZM70.5079 21.3409L69.3496 20.1826L70.5079 19.0243L71.6662 20.1826L70.5079 21.3409ZM72.5285 24.6643H72.9041C72.9841 24.6643 73.0659 24.6626 73.1493 24.6591C73.2328 24.6522 73.3111 24.6452 73.3841 24.6383C73.4572 24.6278 73.5128 24.6139 73.5511 24.5965C73.4885 24.527 73.4276 24.4522 73.3685 24.3722C73.3093 24.2887 73.2554 24.1983 73.2067 24.1009C73.1615 24.0035 73.1232 23.8991 73.0919 23.7878C73.0606 23.673 73.0415 23.5496 73.0346 23.4174C73.0276 23.2122 73.0485 23.0052 73.0972 22.7965C73.1493 22.5843 73.2241 22.3791 73.3215 22.1809C73.4189 21.9826 73.5372 21.7983 73.6763 21.6278C73.8154 21.4539 73.9702 21.3043 74.1406 21.1791C74.3111 21.0504 74.4937 20.953 74.6885 20.887C74.8867 20.8174 75.0919 20.7861 75.3041 20.793C75.6067 20.807 75.8885 20.8852 76.1493 21.0278C76.4102 21.1704 76.6346 21.3548 76.8224 21.5809C77.0137 21.807 77.1632 22.0643 77.2711 22.353C77.3824 22.6383 77.438 22.9322 77.438 23.2348C77.438 23.4748 77.398 23.7113 77.318 23.9443C77.238 24.1739 77.1372 24.393 77.0154 24.6017C77.1059 24.6226 77.2172 24.6383 77.3493 24.6487C77.4815 24.6591 77.6502 24.6643 77.8554 24.6643H77.9598V26.313H77.7563C77.5302 26.313 77.3146 26.3061 77.1093 26.2922C76.9076 26.2817 76.7076 26.2609 76.5093 26.2296C76.3146 26.1983 76.118 26.1548 75.9198 26.0991C75.725 26.047 75.5215 25.9774 75.3093 25.8904C75.1806 25.9635 75.0189 26.0261 74.8241 26.0783C74.6328 26.1339 74.4224 26.1774 74.1928 26.2087C73.9632 26.2435 73.7232 26.2696 73.4728 26.287C73.2224 26.3043 72.9754 26.313 72.7319 26.313H72.5285V24.6643ZM76.0554 23.3548C76.0554 23.2435 76.0276 23.1374 75.9719 23.0365C75.9198 22.9357 75.8537 22.8452 75.7737 22.7652C75.6972 22.6852 75.6137 22.6191 75.5232 22.567C75.4328 22.5113 75.3511 22.473 75.278 22.4522C75.198 22.4696 75.1059 22.5009 75.0015 22.5461C74.9006 22.5913 74.8032 22.6557 74.7093 22.7391C74.6189 22.8191 74.5424 22.9183 74.4798 23.0365C74.4172 23.1513 74.3859 23.2887 74.3859 23.4487C74.3859 23.5009 74.4119 23.5739 74.4641 23.6678C74.5198 23.7583 74.5893 23.8522 74.6728 23.9496C74.7598 24.0435 74.8572 24.1322 74.965 24.2157C75.0763 24.2957 75.1893 24.353 75.3041 24.3878C75.3911 24.3391 75.4798 24.273 75.5702 24.1896C75.6606 24.1026 75.7406 24.0122 75.8102 23.9183C75.8832 23.8209 75.9424 23.7235 75.9876 23.6261C76.0328 23.5252 76.0554 23.4348 76.0554 23.3548ZM75.205 20.0678L74.0467 18.9096L75.205 17.7513L76.3632 18.9096L75.205 20.0678ZM77.755 24.6643H78.0942C78.2507 24.6643 78.3829 24.64 78.4907 24.5913C78.602 24.5391 78.6924 24.4678 78.762 24.3774C78.835 24.2835 78.8872 24.1739 78.9185 24.0487C78.9533 23.9235 78.9707 23.7861 78.9707 23.6365C78.9742 23.4313 78.9759 23.1826 78.9759 22.8904C78.9759 22.5948 78.9742 22.2783 78.9707 21.9409C78.9672 21.6 78.962 21.2487 78.955 20.887C78.9481 20.5217 78.9394 20.167 78.9289 19.8226C78.9185 19.4748 78.9081 19.1461 78.8976 18.8365C78.8872 18.5235 78.8768 18.2504 78.8663 18.0174L80.5255 17.7148L80.5829 23.9704C80.5829 24.1861 80.6368 24.3565 80.7446 24.4817C80.8559 24.6035 81.0194 24.6643 81.235 24.6643H81.3498V26.313H81.235C81.0924 26.3165 80.9481 26.3043 80.802 26.2765C80.6594 26.2487 80.5237 26.2087 80.395 26.1565C80.2663 26.1078 80.1515 26.0487 80.0507 25.9791C79.9498 25.9096 79.8715 25.8348 79.8159 25.7548C79.7429 25.8452 79.6576 25.9252 79.5602 25.9948C79.4629 26.0643 79.3446 26.1217 79.2055 26.167C79.0698 26.2157 78.9098 26.2522 78.7255 26.2765C78.5411 26.3009 78.3272 26.313 78.0837 26.313H77.755V24.6643ZM81.1417 24.6643H82.3939C82.5435 24.6643 82.7087 24.6574 82.8896 24.6435C83.0704 24.6261 83.2391 24.593 83.3957 24.5443C83.5557 24.4957 83.6878 24.4243 83.7922 24.3304C83.9 24.233 83.9539 24.1061 83.9539 23.9496C83.9539 23.8661 83.9278 23.7426 83.8757 23.5791C83.827 23.4122 83.7609 23.2278 83.6774 23.0261C83.5974 22.8209 83.5052 22.607 83.4009 22.3843C83.3 22.1617 83.1991 21.9496 83.0983 21.7478L84.5904 21.007C84.6878 21.2261 84.7835 21.4591 84.8774 21.7061C84.9748 21.953 85.0617 22.2035 85.1383 22.4574C85.2148 22.7113 85.2757 22.9652 85.3209 23.2191C85.3696 23.4696 85.3939 23.7096 85.3939 23.9391C85.3939 24.3704 85.3139 24.7374 85.1539 25.04C84.9974 25.3391 84.7835 25.5843 84.5122 25.7757C84.2409 25.9635 83.9226 26.0991 83.5574 26.1826C83.1922 26.2696 82.8009 26.313 82.3835 26.313H81.1417V24.6643ZM83.5731 19.2852L82.5922 20.2661L81.58 19.2591L82.5817 18.2522L83.5731 19.2435L84.5539 18.2626L85.5661 19.2696L84.5644 20.2765L83.5731 19.2852ZM91.8039 26.313C91.5221 26.313 91.2369 26.2643 90.9482 26.167C90.663 26.0696 90.4021 25.9304 90.1656 25.7496C89.9326 25.5652 89.7413 25.3426 89.5917 25.0817C89.4456 24.8174 89.3726 24.52 89.3726 24.1896C89.3726 23.4939 89.6804 22.7722 90.296 22.0243C90.3447 21.9652 90.3847 21.9165 90.416 21.8783C90.4508 21.84 90.4821 21.8052 90.51 21.7739C90.5378 21.7426 90.5639 21.7148 90.5882 21.6904L90.6821 21.5965L90.3639 21.3252L91.4021 20.0574C91.5795 20.1896 91.79 20.3687 92.0334 20.5948C92.2804 20.8174 92.5674 21.1026 92.8943 21.4504C93.7952 22.4765 94.2456 23.3896 94.2456 24.1896C94.2456 24.5374 94.1743 24.8435 94.0317 25.1078C93.8891 25.3722 93.703 25.5948 93.4734 25.7757C93.2439 25.953 92.983 26.087 92.6908 26.1774C92.3987 26.2678 92.103 26.313 91.8039 26.313ZM92.816 24.1896C92.816 24.0817 92.7813 23.96 92.7117 23.8243C92.6421 23.6887 92.55 23.5478 92.4352 23.4017C92.3239 23.2522 92.1987 23.1026 92.0595 22.953C91.9204 22.8 91.7813 22.6539 91.6421 22.5148C91.5482 22.6191 91.4491 22.7374 91.3447 22.8696C91.2404 22.9983 91.1447 23.1357 91.0578 23.2817C90.9708 23.4278 90.8995 23.5791 90.8439 23.7357C90.7882 23.8887 90.7639 24.04 90.7708 24.1896C90.7743 24.273 90.8143 24.3461 90.8908 24.4087C90.9674 24.4713 91.0578 24.5217 91.1621 24.56C91.27 24.5983 91.383 24.6278 91.5013 24.6487C91.6195 24.6661 91.7204 24.6748 91.8039 24.6748C91.9082 24.6748 92.0195 24.6678 92.1378 24.6539C92.2595 24.6365 92.3691 24.6087 92.4665 24.5704C92.5674 24.5322 92.6508 24.4817 92.7169 24.4191C92.783 24.3565 92.816 24.28 92.816 24.1896ZM97.3892 22.4887C97.4623 22.7043 97.5388 22.9409 97.6188 23.1983C97.7023 23.4522 97.7771 23.713 97.8431 23.9809C97.9127 24.2487 97.9701 24.5165 98.0153 24.7843C98.0605 25.0487 98.0831 25.2974 98.0831 25.5304C98.0831 25.8574 98.0379 26.1757 97.9475 26.4852C97.8605 26.7983 97.7353 27.1009 97.5718 27.393C97.4118 27.6852 97.2205 27.9652 96.9979 28.233C96.7753 28.5009 96.5284 28.753 96.2571 28.9896C95.9858 29.2296 95.6953 29.4504 95.3858 29.6522C95.0762 29.8574 94.7562 30.0417 94.4258 30.2052L93.4762 28.8852C93.7266 28.76 93.9805 28.6174 94.2379 28.4574C94.4918 28.3009 94.7353 28.1322 94.9684 27.9513C95.2049 27.7704 95.424 27.5809 95.6258 27.3826C95.831 27.1843 96.0084 26.9826 96.1579 26.7774C96.311 26.5722 96.431 26.3635 96.5179 26.1513C96.6049 25.9426 96.6484 25.7374 96.6484 25.5357C96.6484 25.3896 96.6275 25.2313 96.5858 25.0609C96.5475 24.8904 96.4936 24.7078 96.424 24.513C96.3544 24.3148 96.2727 24.1061 96.1788 23.887C96.0884 23.6643 95.9892 23.4278 95.8814 23.1774L97.3892 22.4887ZM98.443 28.3843C98.9334 28.287 99.3804 28.1635 99.7838 28.0139C100.187 27.8678 100.54 27.7026 100.843 27.5183C101.149 27.3374 101.401 27.1443 101.599 26.9391C101.801 26.7339 101.944 26.5252 102.027 26.313C101.878 26.313 101.719 26.3096 101.553 26.3026C101.386 26.2991 101.248 26.2939 101.14 26.287C100.796 26.2591 100.483 26.193 100.201 26.0887C99.9195 25.9878 99.676 25.8487 99.4708 25.6713C99.269 25.4904 99.1125 25.2713 99.0012 25.0139C98.8899 24.7565 98.8343 24.4609 98.8343 24.127C98.8343 23.9148 98.8569 23.6974 98.9021 23.4748C98.9473 23.2522 99.0117 23.0348 99.0951 22.8226C99.1821 22.6104 99.2882 22.4104 99.4134 22.2226C99.5421 22.0348 99.6864 21.8696 99.8464 21.727C100.006 21.5843 100.182 21.473 100.373 21.393C100.568 21.3096 100.777 21.2678 100.999 21.2678C101.319 21.2678 101.612 21.3374 101.876 21.4765C102.14 21.6157 102.373 21.8017 102.575 22.0348C102.78 22.2643 102.956 22.5304 103.102 22.833C103.248 23.1322 103.365 23.4452 103.452 23.7722C103.542 24.0957 103.601 24.4191 103.629 24.7426C103.66 25.0661 103.662 25.3652 103.634 25.64C103.593 26.047 103.5 26.4278 103.358 26.7826C103.219 27.1409 103.038 27.4696 102.815 27.7687C102.596 28.0713 102.34 28.3443 102.048 28.5878C101.756 28.8348 101.439 29.0504 101.099 29.2348C100.758 29.4226 100.394 29.5791 100.008 29.7043C99.6256 29.8296 99.2325 29.9235 98.829 29.9861L98.443 28.3843ZM100.999 22.9217C100.926 22.9078 100.843 22.9339 100.749 23C100.655 23.0626 100.568 23.1496 100.488 23.2609C100.408 23.3687 100.34 23.4887 100.285 23.6209C100.233 23.753 100.206 23.88 100.206 24.0017C100.206 24.12 100.243 24.2191 100.316 24.2991C100.389 24.3757 100.483 24.4383 100.598 24.487C100.713 24.5357 100.841 24.5739 100.984 24.6017C101.13 24.6261 101.274 24.6435 101.417 24.6539C101.559 24.6609 101.695 24.6643 101.824 24.6643H102.147C102.095 24.4487 102.033 24.2417 101.959 24.0435C101.89 23.8452 101.808 23.6678 101.714 23.5113C101.62 23.3548 101.514 23.2243 101.396 23.12C101.278 23.0157 101.146 22.9496 100.999 22.9217ZM107.136 26.313C106.701 26.313 106.332 26.2539 106.03 26.1357C105.727 26.0209 105.48 25.8609 105.289 25.6557C105.098 25.4504 104.958 25.2087 104.871 24.9304C104.788 24.6487 104.746 24.3443 104.746 24.0174C104.746 23.8504 104.75 23.6435 104.757 23.3965C104.764 23.1461 104.767 22.8574 104.767 22.5304C104.767 22.2035 104.765 21.8452 104.762 21.4557C104.758 21.0626 104.748 20.6696 104.731 20.2765C104.717 19.8835 104.694 19.5061 104.663 19.1443C104.635 18.7826 104.595 18.4678 104.543 18.2L106.103 17.7252C106.148 17.9548 106.184 18.2261 106.212 18.5391C106.244 18.8487 106.268 19.1739 106.285 19.5148C106.303 19.8557 106.315 20.1983 106.322 20.5426C106.332 20.887 106.339 21.207 106.343 21.5026C106.346 21.7635 106.341 22.0383 106.327 22.327C106.317 22.6122 106.308 22.887 106.301 23.1513C106.294 23.4122 106.296 23.6487 106.306 23.8609C106.32 24.073 106.353 24.2348 106.405 24.3461C106.437 24.4261 106.475 24.487 106.52 24.5287C106.569 24.5704 106.624 24.6017 106.687 24.6226C106.75 24.6435 106.818 24.6557 106.891 24.6591C106.967 24.6626 107.051 24.6643 107.141 24.6643H107.282V26.313H107.136ZM107.174 24.6643C107.359 24.6643 107.531 24.6348 107.691 24.5757C107.851 24.513 108.002 24.3948 108.145 24.2209C108.288 24.047 108.421 23.8017 108.547 23.4852C108.672 23.1687 108.792 22.7548 108.907 22.2435L110.289 22.4417C110.286 22.4591 110.281 22.4817 110.274 22.5096C110.253 22.5965 110.227 22.72 110.195 22.88C110.168 23.0365 110.14 23.2139 110.112 23.4122C110.088 23.607 110.075 23.7948 110.075 23.9757C110.079 24.153 110.1 24.3078 110.138 24.44C110.18 24.5687 110.251 24.6452 110.352 24.6696C110.46 24.6974 110.564 24.6765 110.665 24.607C110.766 24.5339 110.861 24.4313 110.952 24.2991C111.042 24.1635 111.126 24.007 111.202 23.8296C111.279 23.6487 111.348 23.4643 111.411 23.2765C111.474 23.0887 111.528 22.9043 111.573 22.7235C111.618 22.5426 111.653 22.3826 111.677 22.2435L113.054 22.4417C113.048 22.5287 113.035 22.6452 113.018 22.7913C113.001 22.9339 112.987 23.087 112.976 23.2504C112.966 23.4139 112.961 23.5791 112.961 23.7461C112.964 23.9096 112.983 24.0591 113.018 24.1948C113.053 24.327 113.107 24.4365 113.18 24.5235C113.253 24.607 113.354 24.6487 113.482 24.6487C113.597 24.6487 113.696 24.6104 113.78 24.5339C113.863 24.4574 113.933 24.3583 113.988 24.2365C114.048 24.1113 114.094 23.9704 114.129 23.8139C114.164 23.6539 114.19 23.4922 114.208 23.3287C114.225 23.1652 114.234 23.007 114.234 22.8539C114.234 22.6974 114.228 22.56 114.218 22.4417L115.627 22.2435L115.799 23.7148C115.82 23.8748 115.865 24.0139 115.934 24.1322C116.004 24.2504 116.086 24.3496 116.18 24.4296C116.274 24.5061 116.373 24.5652 116.477 24.607C116.581 24.6452 116.681 24.6643 116.774 24.6643H116.941V26.313H116.774C116.437 26.313 116.119 26.2539 115.82 26.1357C115.521 26.0174 115.261 25.8174 115.042 25.5357C115.021 25.5635 115.001 25.5878 114.98 25.6087C114.959 25.6296 114.94 25.6504 114.922 25.6713V25.6661C114.734 25.8643 114.517 26.0209 114.27 26.1357C114.027 26.2539 113.764 26.313 113.482 26.313C113.166 26.313 112.874 26.2452 112.606 26.1096C112.341 25.9739 112.121 25.7896 111.943 25.5565C111.734 25.7861 111.498 25.9722 111.234 26.1148C110.969 26.2574 110.679 26.3287 110.362 26.3287C110.067 26.3287 109.792 26.2626 109.538 26.1304C109.284 25.9983 109.074 25.8174 108.907 25.5878C108.719 25.8487 108.486 26.0348 108.208 26.1461C107.933 26.2574 107.592 26.313 107.185 26.313H107.075V24.6643H107.174ZM110.294 22.4417H110.289C110.3 22.4139 110.301 22.4139 110.294 22.4417ZM112.387 20.2243L111.406 21.2052L110.394 20.1983L111.395 19.1913L112.387 20.1826L113.368 19.2017L114.38 20.2087L113.378 21.2157L112.387 20.2243ZM113.321 18.7009L112.392 19.6296L111.458 18.6957L112.387 17.767L113.321 18.7009ZM121.255 26.2974C121.046 26.2974 120.831 26.2748 120.608 26.2296C120.386 26.1878 120.166 26.1304 119.951 26.0574C119.739 25.9843 119.533 25.9009 119.335 25.807C119.14 25.7096 118.966 25.6104 118.813 25.5096C118.699 25.6626 118.575 25.7913 118.443 25.8957C118.314 25.9965 118.175 26.0783 118.026 26.1409C117.879 26.2035 117.719 26.247 117.546 26.2713C117.375 26.2991 117.191 26.313 116.992 26.313H116.732V24.6643H116.992C117.222 24.6643 117.415 24.6174 117.572 24.5235C117.728 24.4296 117.862 24.3096 117.973 24.1635C118.085 24.0139 118.182 23.8504 118.266 23.673C118.352 23.4922 118.441 23.3165 118.532 23.1461C118.636 22.9339 118.752 22.7217 118.881 22.5096C119.013 22.2974 119.165 22.1061 119.335 21.9357C119.506 21.7652 119.697 21.6278 119.909 21.5235C120.125 21.4157 120.366 21.3617 120.634 21.3617C120.999 21.3617 121.312 21.447 121.573 21.6174C121.838 21.7843 122.055 22.0052 122.226 22.28C122.396 22.5513 122.521 22.8609 122.601 23.2087C122.685 23.553 122.726 23.9009 122.726 24.2522C122.726 24.5478 122.683 24.8209 122.596 25.0713C122.509 25.3217 122.396 25.5374 122.257 25.7183C122.118 25.8991 121.959 26.04 121.782 26.1409C121.608 26.2452 121.432 26.2974 121.255 26.2974ZM120.587 22.953C120.486 22.953 120.392 22.993 120.306 23.073C120.219 23.1496 120.137 23.2452 120.06 23.36C119.984 23.4748 119.914 23.6 119.852 23.7357C119.792 23.8713 119.739 23.9965 119.69 24.1113C119.805 24.1843 119.935 24.2522 120.081 24.3148C120.227 24.3774 120.379 24.433 120.535 24.4817C120.692 24.527 120.85 24.5652 121.01 24.5965C121.17 24.6278 121.323 24.6504 121.469 24.6643C121.486 24.4522 121.476 24.2435 121.438 24.0383C121.399 23.833 121.339 23.6504 121.255 23.4904C121.175 23.3304 121.078 23.2017 120.963 23.1043C120.848 23.0035 120.723 22.953 120.587 22.953Z" fill="#0098EE"/>
<defs>
<filter id="filter0_d_28_13" x="0" y="0" width="102" height="102" filterUnits="userSpaceOnUse" color-interpolation-filters="sRGB">
<feFlood flood-opacity="0" result="BackgroundImageFix"/>
<feColorMatrix in="SourceAlpha" type="matrix" values="0 0 0 0 0 0 0 0 0 0 0 0 0 0 0 0 0 0 127 0" result="hardAlpha"/>
<feOffset dy="4"/>
<feGaussianBlur stdDeviation="4.5"/>
<feComposite in2="hardAlpha" operator="out"/>
<feColorMatrix type="matrix" values="0 0 0 0 0 0 0 0 0 0.596078 0 0 0 0 0.933333 0 0 0 0.4 0"/>
<feBlend mode="normal" in2="BackgroundImageFix" result="effect1_dropShadow_28_13"/>
<feBlend mode="normal" in="SourceGraphic" in2="effect1_dropShadow_28_13" result="shape"/>
</filter>
</defs>
</svg>
