<?xml version="1.0" encoding="utf-8"?>
<!-- Generator: Adobe Illustrator 23.1.0, SVG Export Plug-In . SVG Version: 6.00 Build 0)  -->
<svg version="1.1" id="Isolation_Mode" xmlns="http://www.w3.org/2000/svg" xmlns:xlink="http://www.w3.org/1999/xlink" x="0px"
	 y="0px" viewBox="0 0 453.5 396.9" style="enable-background:new 0 0 453.5 396.9;" xml:space="preserve">
<path style="fill:#97C6EB;" d="M300.3,293.1c-7.2-12.5-16.7-18.9-25-22.1c-2.4-1.5-4.3-1.9-4.3-1.9l-30-6.9v-3.8v-10.1
	c21.1-7,42.5-16.8,52.8-47.7c6.3-3.6,10.9-10.8,11.6-19.2c0.5-6.6-1.5-12.7-5.2-17.1c0.2-0.4,15.8-32,12.8-58.5
	c0,0-1.3-11.7-11.9-23.7c1.8-0.9,5.1-1.2,11.2,0.4c0,0-2.2-11.8-13.2-8.7c0,0,4-11.6-11-12.3c0,0,4.7,5,2.4,11.3
	c-13.2-9.3-34.1-16.9-67.1-16.2l0-0.1c-26.9-1.5-43.9-29-43.9-29c-15.5,12.1-4.9,25.9-4.9,25.9c-18.1,1.6-18.3-8.1-18.3-8.1
	c-21.8,14.5-8.9,42.8-8.9,42.8c-15.6,26.7,3.7,79.8,3.7,79.8v13.9c0,0-9.8,47,40.2,65.9c0,0,3.7,2.7,10.2,4.5v10l-3.6,1.4
	c0,0,0-0.1,0-0.1l-11.9,4.5c-29.7,2.9-29.7,24.7-29.7,24.7l-17.2,81.6h17.9H185h14.7h72.5h16.1h37.1
	C321.5,344.7,314.6,318.7,300.3,293.1z"/>
</svg>
