<?xml version="1.0" encoding="utf-8"?>
<!-- Generator: Adobe Illustrator 23.1.0, SVG Export Plug-In . SVG Version: 6.00 Build 0)  -->
<svg version="1.1" id="Isolation_Mode" xmlns="http://www.w3.org/2000/svg" xmlns:xlink="http://www.w3.org/1999/xlink" x="0px"
	 y="0px" viewBox="0 0 453.5 396.9" style="enable-background:new 0 0 453.5 396.9;" xml:space="preserve">
<path style="fill:#F6A5BC;" d="M250.6,273.6c-1.2-0.5-1.9-0.7-1.9-0.7l-32.8-7.5v-4.1v-13.1c9.8-3.3,19.7-7.1,28.7-13
	c9.4,31.7,31,60,76.4,67.8c-49.6-56.7-3.2-143.9-3.2-143.9c4.8-21.5,5.2-45.6-5.4-65.5c-6.4-12-19.1-26.4-33.4-27.9
	c-16.9-21-46.8-31.7-69.4-31.3c-29.4-3.8-59.7,6.3-79.8,31.5c-9.4,11.8-16.3,23.5-20.5,35.9c-5.5,16-6.5,33.1-2.5,52.8
	c1.6,8.1,3.2,16.9,6.5,24.5c0.3,0.8,3.7,6.1,3.5,6.7c0,0,0,0,0,0c0,16.1,5.5,46.9,44.8,61.8c0,0,4.1,2.9,11.3,5v1.1v11.8l-4,1.5
	c0,0,0-0.1,0-0.1l-25.8,9.7c0,0-0.3,0.2-0.9,0.7c-8.8,3.8-23.6,12.5-28.7,29.3l-17.1,49.7c0,0,0.2,2,1.3,5h27.7h24.1h94.2h22.8h39.2
	c-3.4-17.6-3.9-39.3-15.2-58.4C277.8,279.1,260.8,274.2,250.6,273.6z"/>
</svg>
