<svg width="512" height="476" viewBox="0 0 512 476" fill="none" xmlns="http://www.w3.org/2000/svg">
<path d="M365.196 0.64502C405.138 0.64502 442.85 19.169 477.295 55.722C513.867 94.516 531.128 178.246 480.258 247.497H375.061L358.892 223.239C355.369 217.951 346.615 217.951 343.093 223.239L315.294 264.948L274.411 158.64C272.902 154.738 268.952 152.222 264.841 152.583C260.663 152.887 257.188 155.897 256.277 159.989L224.405 303.42L179.231 205.534C177.854 202.553 175.025 200.483 171.759 200.094C168.464 199.609 165.246 201.015 163.195 203.578L128.066 247.489L32.107 247.498C-19.4 177.724 -1.854 94.088 35.183 55.646C70.834 18.637 107.472 0.64502 147.206 0.64502C191.687 0.64502 231.981 27.533 256.049 72.071C280.146 27.533 320.544 0.64502 365.196 0.64502Z" fill="white"/>
<path d="M369.991 266.477C366.82 266.477 363.858 264.891 362.092 262.252L351.003 245.618L320.925 290.735C318.96 293.697 315.532 295.283 311.981 294.903C308.459 294.514 305.439 292.188 304.167 288.874L267.994 194.833L236.843 334.998C235.96 338.976 232.637 341.938 228.583 342.375C228.241 342.413 227.909 342.432 227.567 342.432C223.902 342.432 220.513 340.296 218.946 336.916L168.417 227.437L140.039 262.917C138.245 265.167 135.51 266.477 132.633 266.477H48.171C49.044 267.379 49.775 268.328 50.677 269.221C85.512 303.714 247.608 470.776 249.241 472.466C251.026 474.308 253.485 475.352 256.048 475.352C258.611 475.352 261.07 474.317 262.855 472.475C264.488 470.785 426.888 303.723 461.732 269.221C462.634 268.329 463.365 267.379 464.239 266.477H369.991Z" fill="white"/>
</svg>
