<?xml version="1.0" encoding="UTF-8" ?>
<!DOCTYPE svg PUBLIC "-//W3C//DTD SVG 1.1//EN" "http://www.w3.org/Graphics/SVG/1.1/DTD/svg11.dtd">
<svg width="405pt" height="504pt" viewBox="0 0 405 504" version="1.1" xmlns="http://www.w3.org/2000/svg">
<g id="#65a8e0ff">
<path fill="#65a8e0" opacity="1.00" d=" M 165.79 14.88 C 168.36 8.18 173.95 2.42 181.07 0.75 C 193.69 -2.17 208.22 6.84 210.03 19.95 C 211.69 31.91 210.70 44.02 210.51 56.04 C 209.87 93.35 209.87 130.68 208.66 167.98 C 208.46 171.70 208.48 175.89 211.21 178.79 C 213.15 180.80 215.62 183.67 218.76 182.75 C 221.98 180.93 222.51 176.85 223.78 173.71 C 238.18 133.12 252.62 92.55 267.06 51.97 C 269.36 45.14 274.47 39.00 281.47 36.74 C 290.82 33.56 301.44 38.30 306.91 46.13 C 311.20 52.69 310.26 61.06 308.19 68.22 C 296.04 110.94 283.46 153.52 271.20 196.20 C 267.61 208.85 268.22 222.25 270.40 235.09 C 271.88 243.61 272.74 252.46 276.75 260.28 C 277.65 261.70 278.00 264.05 279.91 264.42 C 283.02 265.25 284.22 261.70 285.76 259.77 C 304.71 230.84 334.36 207.73 368.87 201.45 C 377.84 200.30 388.17 198.27 396.05 204.01 C 400.17 207.18 404.40 211.48 404.53 217.01 C 404.63 224.60 399.68 231.84 392.72 234.78 C 362.39 249.97 340.62 277.78 325.38 307.41 C 321.23 315.92 317.99 324.90 313.02 332.99 C 302.38 350.06 289.74 366.52 272.66 377.58 C 263.65 383.27 254.45 388.66 245.55 394.53 C 241.91 396.76 243.84 401.53 243.70 404.98 C 244.86 437.98 245.51 470.99 246.40 504.00 L 111.31 504.00 C 112.67 471.32 113.64 438.61 115.10 405.94 C 115.13 402.14 111.36 400.24 108.96 397.94 C 93.38 384.03 83.55 364.97 76.53 345.58 C 70.10 327.76 66.38 309.00 65.37 290.09 C 64.58 274.72 64.19 259.33 63.44 243.96 C 63.05 237.54 59.44 232.00 56.39 226.55 C 42.79 202.81 29.63 178.81 15.79 155.21 C 9.86 144.68 3.96 133.84 1.45 121.91 C 0.43 116.43 -0.17 110.12 3.23 105.31 C 8.57 98.49 18.64 96.12 26.55 99.58 C 32.66 102.07 36.66 107.64 40.10 113.01 C 58.83 141.91 77.66 170.75 96.24 199.75 C 97.80 201.99 98.91 204.65 101.07 206.41 C 105.33 206.23 104.34 201.02 103.84 198.19 C 94.13 156.44 84.11 114.77 74.24 73.05 C 71.65 62.63 71.17 51.65 73.02 41.06 C 74.16 35.58 76.66 29.48 82.25 27.25 C 88.98 24.82 97.19 25.40 102.81 30.14 C 108.32 34.57 111.17 41.33 113.03 47.97 C 124.76 89.57 136.54 131.15 148.28 172.75 C 149.39 176.61 149.98 181.02 153.33 183.71 C 155.04 185.98 159.53 184.95 159.37 181.87 C 161.03 136.91 161.01 91.90 162.13 46.92 C 162.45 36.20 161.84 25.08 165.79 14.88 M 202.26 284.29 C 187.98 296.13 178.72 314.05 178.32 332.70 C 183.71 317.46 192.05 303.01 204.07 292.04 C 220.23 276.67 241.69 268.50 263.10 263.60 C 241.59 265.04 219.23 270.28 202.26 284.29 Z" />
</g>
</svg>
