<?xml version="1.0" encoding="UTF-8" ?>
<!DOCTYPE svg PUBLIC "-//W3C//DTD SVG 1.1//EN" "http://www.w3.org/Graphics/SVG/1.1/DTD/svg11.dtd">
<svg width="410pt" height="512pt" viewBox="0 0 410 512" version="1.1" xmlns="http://www.w3.org/2000/svg">
<g id="#ec4ca2ff">
<path fill="#ec4ca2" opacity="1.00" d=" M 230.33 0.00 L 384.56 0.00 C 392.37 0.26 400.03 4.00 404.67 10.34 C 408.28 15.07 409.87 21.07 409.81 26.97 C 409.83 177.99 409.80 329.01 409.82 480.02 C 409.90 485.86 409.94 491.98 407.27 497.33 C 403.29 506.05 394.07 511.78 384.55 512.00 L 230.37 512.00 C 224.21 511.75 218.07 509.59 213.52 505.36 C 208.05 500.54 205.01 493.30 205.03 486.04 C 204.96 469.09 205.01 452.13 205.01 435.18 C 222.06 435.18 239.12 435.19 256.18 435.18 C 256.19 418.12 256.19 401.06 256.18 384.01 C 239.12 383.99 222.06 384.01 205.00 384.00 C 205.00 366.94 204.99 349.88 205.01 332.82 C 239.14 332.81 273.27 332.82 307.40 332.81 C 307.41 315.74 307.41 298.67 307.40 281.60 C 273.27 281.59 239.15 281.59 205.02 281.60 C 204.98 264.54 204.99 247.47 205.01 230.40 C 222.07 230.41 239.12 230.41 256.18 230.40 C 256.19 213.33 256.19 196.26 256.18 179.19 C 239.12 179.18 222.06 179.20 205.01 179.18 C 204.99 162.12 205.00 145.06 205.00 128.00 C 239.14 127.99 273.27 128.01 307.40 127.99 C 307.41 110.94 307.41 93.88 307.40 76.82 C 273.27 76.81 239.14 76.82 205.01 76.82 C 204.98 60.54 205.01 44.26 204.99 27.99 C 204.91 22.69 205.79 17.24 208.59 12.66 C 213.00 5.00 221.54 0.19 230.33 0.00 Z" />
<path fill="#ec4ca2" opacity="1.00" d=" M 0.21 102.40 C 25.79 73.26 51.40 44.14 77.00 15.01 C 102.60 44.14 128.21 73.26 153.79 102.40 C 136.72 102.43 119.66 102.38 102.59 102.42 C 102.60 238.95 102.59 375.47 102.59 512.00 L 51.41 512.00 C 51.41 375.47 51.41 238.95 51.41 102.42 C 34.34 102.38 17.28 102.42 0.21 102.40 Z" />
</g>
</svg>
