<?xml version="1.0" encoding="UTF-8" ?>
<!DOCTYPE svg PUBLIC "-//W3C//DTD SVG 1.1//EN" "http://www.w3.org/Graphics/SVG/1.1/DTD/svg11.dtd">
<svg width="512pt" height="512pt" viewBox="0 0 512 512" version="1.1" xmlns="http://www.w3.org/2000/svg">
<g id="#ffb902ff">
<path fill="#ffb902" opacity="1.00" d=" M 226.68 49.60 C 236.47 33.08 246.22 16.53 256.00 0.01 C 266.00 16.99 276.12 33.90 286.03 50.93 C 288.76 57.96 291.71 65.38 290.60 73.08 C 288.99 90.51 272.63 105.27 255.04 104.60 C 240.21 104.21 226.69 93.19 222.57 79.08 C 219.43 69.21 221.95 58.52 226.68 49.60 Z" />
<path fill="#ffb902" opacity="1.00" d=" M 232.72 128.00 C 248.24 128.00 263.76 128.00 279.28 128.00 C 279.28 139.64 279.28 151.27 279.28 162.91 C 318.53 162.91 357.77 162.91 397.01 162.91 C 406.06 162.89 415.18 162.80 424.13 164.34 C 453.74 168.85 480.88 186.98 496.43 212.55 C 506.44 228.60 511.57 247.44 512.00 266.30 L 512.00 268.71 C 511.43 292.23 502.84 315.52 487.63 333.51 C 481.36 341.36 473.61 347.87 465.49 353.72 C 465.46 406.48 465.46 459.24 465.49 512.00 L 46.53 512.00 C 46.52 459.24 46.56 406.47 46.51 353.71 C 31.15 343.14 17.94 329.01 10.06 311.99 C 3.51 298.85 0.62 284.19 0.00 269.60 L 0.00 266.34 C 0.28 260.93 0.56 255.51 1.54 250.18 C 5.76 223.69 20.77 199.14 42.45 183.35 C 60.35 169.96 82.70 162.97 105.00 162.94 C 147.57 162.86 190.15 162.93 232.72 162.90 C 232.71 151.27 232.72 139.64 232.72 128.00 M 70.98 220.03 C 60.04 227.63 52.02 239.26 48.62 252.13 C 44.94 265.80 46.27 280.79 52.49 293.53 C 58.23 305.44 68.28 315.20 80.36 320.59 C 95.19 327.31 112.94 327.60 127.80 320.82 C 136.45 317.09 143.42 310.51 149.94 303.87 C 159.67 294.13 169.42 284.42 179.13 274.66 C 190.62 285.92 201.89 297.42 213.32 308.74 C 220.06 314.37 227.74 318.85 235.89 322.13 C 252.18 328.33 271.30 326.53 286.01 317.10 C 294.87 311.13 301.90 302.98 309.52 295.58 C 316.59 288.64 323.39 281.42 330.64 274.67 C 339.78 284.09 349.18 293.26 358.43 302.58 C 371.67 316.92 390.91 326.97 410.80 325.67 C 427.56 324.85 443.81 316.35 453.82 302.85 C 463.21 290.45 467.09 274.17 464.76 258.84 C 462.65 243.82 454.36 229.74 442.09 220.81 C 432.04 213.30 419.48 209.44 406.97 209.49 C 306.64 209.45 206.30 209.47 105.97 209.47 C 93.59 209.29 81.10 212.82 70.98 220.03 Z" />
</g>
</svg>
