<?xml version="1.0" encoding="UTF-8" ?>
<!DOCTYPE svg PUBLIC "-//W3C//DTD SVG 1.1//EN" "http://www.w3.org/Graphics/SVG/1.1/DTD/svg11.dtd">
<svg width="788pt" height="788pt" viewBox="0 0 788 788" version="1.1" xmlns="http://www.w3.org/2000/svg">
<g id="#917cfbfe">
<path fill="#917cfb" opacity="1.00" d=" M 142.68 0.00 L 645.08 0.00 C 681.44 1.23 717.15 16.30 743.09 41.85 C 766.65 64.58 782.25 95.39 786.53 127.85 C 787.35 133.31 787.49 138.84 788.00 144.34 L 788.00 643.22 C 787.09 673.75 777.01 704.05 758.53 728.46 C 738.63 755.25 709.38 774.98 677.03 783.22 C 666.12 786.12 654.88 787.34 643.65 788.00 L 144.75 788.00 C 127.48 787.29 110.24 784.22 94.13 777.83 C 61.97 765.37 34.52 741.21 18.06 710.90 C 6.71 690.38 0.63 667.08 0.00 643.67 L 0.00 142.80 C 0.58 132.16 1.86 121.53 4.57 111.21 C 12.80 78.44 32.83 48.86 60.04 28.86 C 83.82 11.12 113.07 1.13 142.68 0.00 M 309.96 100.03 C 270.18 108.93 231.91 124.59 197.41 146.32 C 169.03 164.39 142.53 185.96 121.20 212.10 C 161.60 262.62 201.99 313.14 242.43 363.63 C 343.45 363.62 444.47 363.65 545.49 363.61 C 585.88 313.11 626.29 262.63 666.67 212.12 C 654.02 196.28 639.05 182.43 623.32 169.70 C 588.90 142.11 549.28 121.07 507.19 107.88 C 443.65 88.08 374.90 85.73 309.96 100.03 Z" />
<path fill="#917cfb" opacity="1.00" d=" M 394.91 333.33 C 434.62 272.77 474.37 212.24 514.09 151.69 C 500.65 212.27 487.05 272.82 473.43 333.36 C 447.26 333.30 421.08 333.36 394.91 333.33 Z" />
</g>
</svg>
